<svg id="Layer_1" xmlns="http://www.w3.org/2000/svg" viewBox="0 0 300 300"><style>.st0,.st1{fill:#888}.st1{fill-rule:evenodd;clip-rule:evenodd}</style><path class="st0" d="M83.1 115.8c0-6.8-5.6-12.4-12.4-12.4s-12.4 5.6-12.4 12.4c0 3.6 1.6 6.9 4 9.1l.4.3s.1 0 .1.1c.2.2.4.3.7.5l.2.2c.2.2.5.3.7.5.1 0 .1.1.2.1.3.2.6.3.8.4h.1c.9.4 1.9.8 3 .9h.1c.3.1.7.1 1 .1h2.2c.3 0 .7-.1 1-.1h.1c1-.2 2-.5 3-.9h.1c.3-.1.6-.3.8-.4.1 0 .1-.1.2-.1.2-.1.5-.3.7-.5.1-.1.2-.1.2-.2.2-.1.4-.3.6-.4l.1-.1.4-.3c2.5-2.3 4.1-5.6 4.1-9.2zm-23.9 0c0-6.3 5.2-11.5 11.5-11.5s11.5 5.2 11.5 11.5c0 3.4-1.5 6.5-3.9 8.6-.1-.1-.3-.2-.4-.2l-3.8-1.9c-.3-.2-.6-.5-.6-.9V120c.1-.1.2-.2.3-.4.5-.7.9-1.5 1.2-2.3.6-.3.9-.8.9-1.5v-1.6c0-.4-.1-.8-.4-1.1V111c0-.2.1-1.6-.9-2.6-.8-.9-2.2-1.4-4-1.4-1.8 0-3.2.5-4 1.4-1 1.1-.9 2.4-.9 2.6v2.1c-.3.3-.4.7-.4 1.1v1.6c0 .5.2 1 .6 1.3.4 1.4 1.1 2.5 1.4 2.9v1.3c0 .4-.2.7-.5.9l-3.6 1.9c-.1.1-.2.1-.3.2-2.3-2.1-3.7-5.1-3.7-8.5zm18.2 9.3c-.2.1-.3.2-.5.3-.1 0-.1.1-.2.1-.2.1-.4.3-.7.4 0 0-.1 0-.1.1-.5.3-1 .5-1.6.7h-.1c-.3.1-.6.2-.9.2-.3.1-.6.1-.9.2-.3 0-.6.1-.8.1h-2c-.3 0-.6-.1-.9-.1-.6-.1-1.2-.2-1.8-.4h-.1c-.3-.1-.6-.2-.8-.3-.3-.1-.5-.2-.8-.4 0 0-.1 0-.1-.1-.2-.1-.5-.3-.7-.4-.1 0-.1-.1-.2-.1-.2-.1-.4-.3-.6-.4h-.1l3.6-1.9c.6-.3 1-1 1-1.7v-1.6l-.1-.1s-1-1.2-1.4-2.8v-.2l-.2-.1c-.2-.1-.3-.4-.3-.6v-1.6c0-.2.1-.4.3-.6l.1-.1v-2.6s-.1-1.1.6-2c.7-.7 1.8-1.1 3.3-1.1 1.5 0 2.7.4 3.3 1.1.8.9.6 2 .6 2v2.6l.1.1c.2.1.3.3.3.6v1.6c0 .3-.2.6-.5.7l-.2.1-.1.2c-.3.8-.6 1.6-1.1 2.3-.1.2-.2.3-.3.4l-.1.1v1.7c0 .7.4 1.4 1.1 1.7l3.8 1.9h.1c.1-.1 0 0 0 0zm0 0"/><path class="st1" d="M162.1 117.2H154c-.4 0-.8.4-.8.8s.4.8.8.8h8.1c.4 0 .8-.4.8-.8s-.4-.8-.8-.8zm1.6-4.9h-11.4c-.4 0-.8.4-.8.8s.4.8.8.8h11.4c.4 0 .8-.4.8-.8s-.4-.8-.8-.8zm-5.7-8.9c-7.2 0-13 5.1-13 11.4 0 3.6 1.9 6.8 4.9 8.9v5.8l5.7-3.5c.8.1 1.6.2 2.4.2 7.2 0 13-5.1 13-11.4 0-6.3-5.8-11.4-13-11.4zm0 21.1c-.9 0-1.9-.1-2.7-.3l-3.8 2.3.1-3.8c-2.9-1.8-4.9-4.7-4.9-8 0-5.4 5.1-9.8 11.4-9.8 6.3 0 11.4 4.4 11.4 9.8-.1 5.5-5.2 9.8-11.5 9.8zm0 0"/><path class="st0" d="M106.5 116c.1 0 .2 0 .3-.1l1.8-1.8v9.5h-1.3c-.2 0-.4.2-.4.4s.2.4.4.4h3.4c.2 0 .4-.2.4-.4s-.2-.4-.4-.4h-1.3v-10.7c0-.1-.1-.2-.2-.2h-.3c-.1 0-.1.1-.1.1l-2.5 2.5c-.2.2-.2.4 0 .6 0 .1.1.1.2.1zm7.1 5.1c0 1.9 1.5 3.4 3.4 3.4s3.4-1.5 3.4-3.4c0-1.3-.7-2.4-1.8-3 .8-.5 1.4-1.4 1.4-2.5 0-1.6-1.3-2.9-2.9-2.9-1.6 0-2.9 1.3-2.9 2.9 0 1.1.6 2 1.4 2.5-1.2.6-2 1.7-2 3zm1.3-5.5c0-1.2.9-2.1 2.1-2.1 1.2 0 2.1.9 2.1 2.1 0 1.2-.9 2.1-2.1 2.1-1.1 0-2.1-.9-2.1-2.1zm2.1 3c1.4 0 2.5 1.1 2.5 2.5s-1.1 2.5-2.5 2.5-2.5-1.1-2.5-2.5 1.1-2.5 2.5-2.5zm-5-15.6c-.2 0-.4.2-.4.4s.2.4.4.4c.5 0 1 .4 1.2.8h.9c-.3-.9-1.1-1.6-2.1-1.6zm2.5 0c-.2 0-.4.2-.4.4s.2.4.4.4c.5 0 1 .4 1.2.8h.9c-.2-.9-1.1-1.6-2.1-1.6zm2.5 0c-.2 0-.4.2-.4.4s.2.4.4.4c.5 0 1 .4 1.2.8h.9c-.2-.9-1.1-1.6-2.1-1.6zm0 0"/><path class="st0" d="M119.1 104.7v.4c0 1.2-.9 2.1-2.1 2.1-.2 0-.4-.2-.4-.4s.2-.4.4-.4c.7 0 1.3-.6 1.3-1.3 0-.1 0-.3-.1-.4h-1.6v.4c0 1.2-.9 2.1-2.1 2.1-.2 0-.4-.2-.4-.4s.2-.4.4-.4c.7 0 1.3-.6 1.3-1.3 0-.1 0-.3-.1-.4H114v.4c0 1.2-.9 2.1-2.1 2.1-.2 0-.4-.2-.4-.4s.2-.4.4-.4c.7 0 1.3-.6 1.3-1.3 0-.1 0-.3-.1-.4h-1.7v.4c0 1.2-.9 2.1-2.1 2.1-.2 0-.4-.2-.4-.4s.2-.4.4-.4c.7 0 1.3-.6 1.3-1.3 0-.1 0-.3-.1-.4h-2.4c.2-.5.6-.8 1.2-.8.5 0 1 .4 1.2.8h.9c-.2-1-1-1.7-2.1-1.7-1 0-1.9.7-2.1 1.7H101V127h24.4v-22.3h-6.3zm5.5 21.4h-22.7v-15.6h22.7v15.6zm0 0"/></svg>