<svg xmlns="http://www.w3.org/2000/svg" viewBox="0 0 39.3 28.3"><path d="M19.8 1.7v1l-.9.2v7.3h-1.7l-3.4-5.7V9l.9.2v1h-3.5v-1l.8-.1V2.9l-.9-.2v-1h2.6l3.4 5.7V2.9l-.9-.2v-1h3.6zm8.4 4.4c0 1.3-.4 2.3-1.1 3.1s-1.7 1.2-2.8 1.2c-1.2 0-2.1-.4-2.8-1.2s-1.1-1.8-1.1-3.1v-.2c0-1.2.4-2.3 1.1-3.1s1.6-1.2 2.8-1.2c1.2 0 2.1.4 2.8 1.2s1.1 1.9 1.1 3.1v.2zm-1.7-.2c0-.9-.2-1.6-.6-2.2s-.9-.8-1.6-.8-1.3.3-1.6.9-.5 1.2-.5 2.1V6c0 .9.2 1.6.5 2.2s.9.8 1.6.8c.7 0 1.3-.3 1.6-.8s.5-1.3.5-2.2v-.1zM.3 17.2v-1h3.5v1l-.9.2v6.1l.9.2v1H.3v-1l.9-.2v-6.1l-.9-.2zm12.4 1.2l-2.3 6.3H9.3L7 18.4l.2 3.7v1.3l.8.2v1H4.5v-1l.9-.2v-6.1l-.9-.2v-1h3.1l2.2 6.3 2.2-6.3h3.2v1l-.9.2v6.1l.9.2v1h-3.5v-1l.9-.2v-1.3l.1-3.7zm3 5.2l.6-.1 2.6-7.4h1.8l2.6 7.4.6.1v1H21v-1l.6-.1-.4-1.2h-2.8l-.4 1.2.6.1v1h-2.9v-1zm3.1-2.5h2l-1-3-1 3zm12.3 2.6c-.3.3-.7.5-1.2.7s-1.2.3-2 .3c-1.2 0-2.1-.4-2.8-1.2s-1.1-1.8-1.1-3v-.3c0-1.3.4-2.3 1.1-3.1s1.6-1.2 2.8-1.2c.7 0 1.3.1 1.8.3s1 .5 1.4.9v1.7h-1.3l-.2-1.1-.6-.3c-.2-.1-.5-.1-.9-.1-.7 0-1.3.3-1.7.8s-.6 1.3-.6 2.2v.3c0 .9.2 1.6.6 2.1s1 .8 1.8.8c.3 0 .6 0 .8-.1s.4-.1.5-.2v-1.4l-1.2-.1v-1.2h2.9v3.2zm6.4-2.8h-2.9v2.4h2.8l.1-1h1.3v2.3H32v-1l.9-.2v-6.1l-.9-.1v-1h6.7v2.3h-1.3l-.1-1h-2.7v2.1h2.9v1.3z"/></svg>