<?xml version="1.0" encoding="utf-8"?>
<!-- Generator: Adobe Illustrator 19.2.1, SVG Export Plug-In . SVG Version: 6.00 Build 0)  -->
<svg version="1.1" id="Layer_1" xmlns="http://www.w3.org/2000/svg" xmlns:xlink="http://www.w3.org/1999/xlink" x="0px" y="0px"
	 viewBox="0 0 39.3 28.3" style="enable-background:new 0 0 39.3 28.3;" xml:space="preserve">
<g>
	<path d="M19.8,1.7v1l-0.9,0.2v7.3h-1.7l-3.4-5.7l0,0v4.5l0.9,0.2v1h-3.5v-1L12,9.1V2.9l-0.9-0.2v-1H12h1.7l3.4,5.7l0,0V2.9
		l-0.9-0.2v-1h2.6H19.8z"/>
	<path d="M28.2,6.1c0,1.3-0.4,2.3-1.1,3.1s-1.7,1.2-2.8,1.2c-1.2,0-2.1-0.4-2.8-1.2s-1.1-1.8-1.1-3.1V5.9c0-1.2,0.4-2.3,1.1-3.1
		s1.6-1.2,2.8-1.2c1.2,0,2.1,0.4,2.8,1.2s1.1,1.9,1.1,3.1V6.1z M26.5,5.9c0-0.9-0.2-1.6-0.6-2.2S25,2.9,24.3,2.9S23,3.2,22.7,3.8
		S22.2,5,22.2,5.9v0.1c0,0.9,0.2,1.6,0.5,2.2s0.9,0.8,1.6,0.8c0.7,0,1.3-0.3,1.6-0.8s0.5-1.3,0.5-2.2V5.9z"/>
	<path d="M0.3,17.2v-1h3.5v1l-0.9,0.2v6.1l0.9,0.2v1H0.3v-1l0.9-0.2v-6.1L0.3,17.2z"/>
	<path d="M12.7,18.4L12.7,18.4l-2.3,6.3H9.3L7,18.4l0,0l0.2,3.7v1.3L8,23.6v1H4.5v-1l0.9-0.2v-6.1l-0.9-0.2v-1h0.9h2.2l2.2,6.3h0
		l2.2-6.3h3.2v1l-0.9,0.2v6.1l0.9,0.2v1h-3.5v-1l0.9-0.2v-1.3L12.7,18.4z"/>
	<path d="M15.7,23.6l0.6-0.1l2.6-7.4h1.8l2.6,7.4l0.6,0.1v1H21v-1l0.6-0.1l-0.4-1.2h-2.8L18,23.5l0.6,0.1v1h-2.9V23.6z M18.8,21.1h2
		l-1-3h0L18.8,21.1z"/>
	<path d="M31.1,23.7c-0.3,0.3-0.7,0.5-1.2,0.7s-1.2,0.3-2,0.3c-1.2,0-2.1-0.4-2.8-1.2s-1.1-1.8-1.1-3v-0.3c0-1.3,0.4-2.3,1.1-3.1
		s1.6-1.2,2.8-1.2c0.7,0,1.3,0.1,1.8,0.3s1,0.5,1.4,0.9v1.7h-1.3l-0.2-1.1c-0.2-0.1-0.4-0.2-0.6-0.3s-0.5-0.1-0.9-0.1
		c-0.7,0-1.3,0.3-1.7,0.8s-0.6,1.3-0.6,2.2v0.3c0,0.9,0.2,1.6,0.6,2.1s1,0.8,1.8,0.8c0.3,0,0.6,0,0.8-0.1s0.4-0.1,0.5-0.2v-1.4
		l-1.2-0.1v-1.2h2.9V23.7z"/>
	<path d="M37.5,20.9h-2.9v2.4h2.8l0.1-1h1.3v2.3H32v-1l0.9-0.2v-6.1L32,17.2v-1h0.9h5.8v2.3h-1.3l-0.1-1h-2.7v2.1h2.9V20.9z"/>
</g>
</svg>
