<svg id="Layer_1" xmlns="http://www.w3.org/2000/svg" xmlns:xlink="http://www.w3.org/1999/xlink" viewBox="0 0 469.6 89.5"><style>.st0{fill:#0e6ba7}.st1{fill:url(#SVGID_1_)}.st2{fill:none}.st3{fill:url(#SVGID_2_)}.st4{fill:url(#SVGID_3_)}.st5{fill:url(#SVGID_4_)}.st6{fill:url(#SVGID_5_)}.st7{fill:url(#SVGID_6_)}.st8{fill:url(#SVGID_7_)}.st9{fill:url(#SVGID_8_)}.st10{fill:url(#SVGID_9_)}.st11{fill:url(#SVGID_10_)}.st12{fill:url(#SVGID_11_)}.st13{fill:url(#SVGID_12_)}.st14{fill:url(#SVGID_13_)}.st15{fill:url(#SVGID_14_)}.st16{fill:url(#SVGID_15_)}.st17{fill:url(#SVGID_16_)}.st18{fill:url(#SVGID_17_)}.st19{fill:url(#SVGID_18_)}.st20{fill:url(#SVGID_19_)}.st21{fill:#28a9e0}.st22{clip-path:url(#SVGID_21_);fill:#00aaf2}.st23{fill:#f03921}.st24{fill:#107bab}.st25{clip-path:url(#SVGID_23_)}.st25,.st26{fill:#f34a38}.st27{fill:#385c8e}.st28{fill:#bcbbbb}.st29{fill:#f48024}</style><path class="st0" d="M25.2 58.1c-2-1.2-3.8-1.7-5.7-2.9-1.2-.8-2.8-2.6-4.1-4.2-.2 2.6-1 3.6-1.9 4.4-1.9 1.5-3.1 1.9-4.7 2.8C7.4 58.9 0 63.4 0 73c0 9.6 8.1 16.6 17.1 16.5 9 0 16.7-6.6 16.7-16.4 0-9.8-7.4-14.2-8.6-15zm.3 27.6c-.2.2-1.9 1.4-3.9 1.6-2 .2-4.7.3-6.4-1.2-.3-.2-.2-.6 0-.8.2-.2.3-.3.6-.3.2 0 .2 0 .3.1.8.6 1.9 1.1 4.2 1.1 2.4 0 4.1-.7 4.8-1.2.3-.2.5 0 .5.1.1.1.2.4-.1.6zM19 82.6c.4-.4 1.1-1 1.7-1.2.6-.3 1-.2 1.6-.2.6 0 1.2 0 1.7.3s.7 1 .9 1.3c.2.4 0 .6-.3.8-.3.1-.3.1-.6-.4-.2-.5-.5-1-1.8-1s-1.7.5-2.3 1c-.6.5-.9.7-1.1.4-.2-.3-.2-.6.2-1zm13.5-7.1c0 1.2-.3 3.2-1.2 4.5-.9 1.3-1.4 1.8-2.5 1.7-1.3-.1-4-4.2-5.7-4.3-2.2-.1-6.8 4.5-10.5 4.5-2.2 0-2.9-.3-3.7-.8-1.1-.8-1.7-2-1.7-3.6 0-2.9 2.7-5.6 6.2-5.7 4.4 0 7.4 4.3 9.6 4.2 1.9 0 5.4-3.7 7.2-3.7 1.7.1 2.2 2 2.3 3.2zm0 0"/><linearGradient id="SVGID_1_" gradientUnits="userSpaceOnUse" x1="161.571" y1="19.18" x2="207.246" y2="19.18"><stop offset=".091" stop-color="#afb0b9"/><stop offset=".246" stop-color="#fff"/><stop offset=".294" stop-color="#fcfcfc"/><stop offset=".337" stop-color="#f1f1f3"/><stop offset=".378" stop-color="#dfdfe3"/><stop offset=".416" stop-color="#c5c6cd"/><stop offset=".444" stop-color="#afb0b9"/><stop offset=".703" stop-color="#fff"/><stop offset=".762" stop-color="#fcfcfc"/><stop offset=".814" stop-color="#f1f1f2"/><stop offset=".864" stop-color="#dfdfe2"/><stop offset=".912" stop-color="#c5c6cb"/><stop offset=".959" stop-color="#a5a6ad"/><stop offset="1" stop-color="#81828d"/></linearGradient><path class="st1" d="M206.5 4.6c-1 .5-2.1.8-3.1 1.1 1.2-1.1 2.1-2.5 2.6-4.1.1-.5-.3-.8-.8-.6-1.5.9-3.1 1.6-4.8 2h-.3c-.3 0-.6-.1-.8-.3-1.8-1.6-4.1-2.5-6.5-2.5-1 0-2.1.2-3.1.5-3.2 1-5.7 3.6-6.4 6.9-.3 1.2-.4 2.4-.2 3.6 0 .1 0 .2-.1.3-.1.1-.2.1-.3.1-7-.6-13.3-4-17.7-9.5-.2-.3-.7-.2-.8.1-.9 1.5-1.3 3.2-1.3 5 0 2.7 1.1 5.2 2.9 7-.8-.2-1.5-.5-2.2-.9-.3-.2-.8.1-.8.4 0 4 2.3 7.5 5.8 9.1h-.2c-.6 0-1.1-.1-1.7-.2-.4-.1-.7.3-.6.7 1.1 3.5 4.2 6.1 7.8 6.7-3 2-6.5 3.1-10.2 3.1h-1.1c-.4 0-.6.2-.7.6-.1.3.1.7.4.9 4.1 2.4 8.8 3.7 13.6 3.7 4.2 0 8.1-.8 11.6-2.5 3.2-1.5 6.1-3.6 8.5-6.4 2.2-2.5 4-5.5 5.2-8.7 1.2-3.1 1.8-6.4 1.8-9.5V11c0-.5.2-1 .6-1.3 1.5-1.2 2.8-2.7 3.9-4.3-.1-.5-.5-1-1-.8zm0 0"/><path class="st2" d="M161.6.2h45.8v38.1h-45.8z"/><linearGradient id="SVGID_2_" gradientUnits="userSpaceOnUse" x1="301.033" y1="19.174" x2="344.602" y2="19.174"><stop offset=".091" stop-color="#afb0b9"/><stop offset=".246" stop-color="#fff"/><stop offset=".294" stop-color="#fcfcfc"/><stop offset=".337" stop-color="#f1f1f3"/><stop offset=".378" stop-color="#dfdfe3"/><stop offset=".416" stop-color="#c5c6cd"/><stop offset=".444" stop-color="#afb0b9"/><stop offset=".703" stop-color="#fff"/><stop offset=".762" stop-color="#fcfcfc"/><stop offset=".814" stop-color="#f1f1f2"/><stop offset=".864" stop-color="#dfdfe2"/><stop offset=".912" stop-color="#c5c6cb"/><stop offset=".959" stop-color="#a5a6ad"/><stop offset="1" stop-color="#81828d"/></linearGradient><path class="st3" d="M342.8 22.5c-.7-1-1-2.1-1-3.3 0-10.6-8.5-19.1-19-19.1-2.3 0-4.5.4-6.5 1.2-1.1.4-2.3.5-3.4.2-1-.3-2.1-.4-3.2-.3-4.6.3-8.4 4.2-8.6 8.8-.1 2.2.6 4.3 1.7 6 .7 1 1 2.1 1 3.3 0 10.6 8.5 19.1 19 19.1 2.3 0 4.5-.4 6.5-1.2 1.1-.4 2.3-.5 3.4-.2 1 .3 2.1.4 3.2.3 4.6-.3 8.4-4.1 8.6-8.8.2-2.3-.5-4.3-1.7-6zm-19.3-6.8c3.8.9 9.6 2.3 9.6 8.7 0 3.2-1.5 5.6-4.4 6.8-2 .9-4.3 1-6.2 1-6 0-9.8-4.7-10-4.9-1-1.2-.8-3.1.5-4 1.2-1 3-.8 4 .5 0 0 2.3 2.6 5.5 2.7 3.9.1 4.8-1 4.9-2 .1-1.2-.9-2.1-5.2-3.1-3.6-.9-9.2-2.2-9.2-8.1 0-1.8.7-7.9 10.3-7.9 6 0 9.6 4.8 9.8 5 .9 1.3.7 3.1-.6 4-1.3.9-3 .7-4-.6-.1-.1-2.1-2.4-5.2-2.7-2.3-.2-4.6.6-4.6 1.9.1 1.3.7 1.8 4.8 2.7zm0 0"/><linearGradient id="SVGID_3_" gradientUnits="userSpaceOnUse" x1="365.425" y1="29.751" x2="416.599" y2="29.751"><stop offset=".091" stop-color="#afb0b9"/><stop offset=".246" stop-color="#fff"/><stop offset=".294" stop-color="#fcfcfc"/><stop offset=".337" stop-color="#f1f1f3"/><stop offset=".378" stop-color="#dfdfe3"/><stop offset=".416" stop-color="#c5c6cd"/><stop offset=".444" stop-color="#afb0b9"/><stop offset=".703" stop-color="#fff"/><stop offset=".762" stop-color="#fcfcfc"/><stop offset=".814" stop-color="#f1f1f2"/><stop offset=".864" stop-color="#dfdfe2"/><stop offset=".912" stop-color="#c5c6cb"/><stop offset=".959" stop-color="#a5a6ad"/><stop offset="1" stop-color="#81828d"/></linearGradient><path class="st4" d="M391 26.9l-6.6-5.8-19 16.2c.7.7 1.6 1 2.6 1h46c1 0 1.9-.4 2.6-1l-19-16.2-6.6 5.8zm0 0"/><linearGradient id="SVGID_4_" gradientUnits="userSpaceOnUse" x1="365.425" y1="11.595" x2="416.599" y2="11.595"><stop offset=".091" stop-color="#afb0b9"/><stop offset=".246" stop-color="#fff"/><stop offset=".294" stop-color="#fcfcfc"/><stop offset=".337" stop-color="#f1f1f3"/><stop offset=".378" stop-color="#dfdfe3"/><stop offset=".416" stop-color="#c5c6cd"/><stop offset=".444" stop-color="#afb0b9"/><stop offset=".703" stop-color="#fff"/><stop offset=".762" stop-color="#fcfcfc"/><stop offset=".814" stop-color="#f1f1f2"/><stop offset=".864" stop-color="#dfdfe2"/><stop offset=".912" stop-color="#c5c6cb"/><stop offset=".959" stop-color="#a5a6ad"/><stop offset="1" stop-color="#81828d"/></linearGradient><path class="st5" d="M416.6 1.2c-.7-.7-1.6-1-2.6-1h-45.9c-1 0-1.9.4-2.6 1L391 23.1l25.6-21.9zm0 0"/><linearGradient id="SVGID_5_" gradientUnits="userSpaceOnUse" x1="364.209" y1="19.373" x2="382.719" y2="19.373"><stop offset=".091" stop-color="#afb0b9"/><stop offset=".246" stop-color="#fff"/><stop offset=".294" stop-color="#fcfcfc"/><stop offset=".337" stop-color="#f1f1f3"/><stop offset=".378" stop-color="#dfdfe3"/><stop offset=".416" stop-color="#c5c6cd"/><stop offset=".444" stop-color="#afb0b9"/><stop offset=".703" stop-color="#fff"/><stop offset=".762" stop-color="#fcfcfc"/><stop offset=".814" stop-color="#f1f1f2"/><stop offset=".864" stop-color="#dfdfe2"/><stop offset=".912" stop-color="#c5c6cb"/><stop offset=".959" stop-color="#a5a6ad"/><stop offset="1" stop-color="#81828d"/></linearGradient><path class="st6" d="M364.2 3.5v31.8l18.5-15.7-18.5-16.1zm0 0"/><linearGradient id="SVGID_6_" gradientUnits="userSpaceOnUse" x1="399.305" y1="19.364" x2="417.815" y2="19.364"><stop offset=".091" stop-color="#afb0b9"/><stop offset=".246" stop-color="#fff"/><stop offset=".294" stop-color="#fcfcfc"/><stop offset=".337" stop-color="#f1f1f3"/><stop offset=".378" stop-color="#dfdfe3"/><stop offset=".416" stop-color="#c5c6cd"/><stop offset=".444" stop-color="#afb0b9"/><stop offset=".703" stop-color="#fff"/><stop offset=".762" stop-color="#fcfcfc"/><stop offset=".814" stop-color="#f1f1f2"/><stop offset=".864" stop-color="#dfdfe2"/><stop offset=".912" stop-color="#c5c6cb"/><stop offset=".959" stop-color="#a5a6ad"/><stop offset="1" stop-color="#81828d"/></linearGradient><path class="st7" d="M399.3 19.5l18.5 15.7V3.5l-18.5 16zm0 0"/><linearGradient id="SVGID_7_" gradientUnits="userSpaceOnUse" y1="19.251" x2="33.798" y2="19.251"><stop offset=".091" stop-color="#afb0b9"/><stop offset=".246" stop-color="#fff"/><stop offset=".294" stop-color="#fcfcfc"/><stop offset=".337" stop-color="#f1f1f3"/><stop offset=".378" stop-color="#dfdfe3"/><stop offset=".416" stop-color="#c5c6cd"/><stop offset=".444" stop-color="#afb0b9"/><stop offset=".703" stop-color="#fff"/><stop offset=".762" stop-color="#fcfcfc"/><stop offset=".814" stop-color="#f1f1f2"/><stop offset=".864" stop-color="#dfdfe2"/><stop offset=".912" stop-color="#c5c6cb"/><stop offset=".959" stop-color="#a5a6ad"/><stop offset="1" stop-color="#81828d"/></linearGradient><path class="st8" d="M25.2 7.1c-2-1.2-3.8-1.7-5.7-2.9-1.2-.8-2.8-2.6-4.1-4.2-.2 2.6-1 3.6-1.9 4.4-1.9 1.5-3.1 1.9-4.7 2.8C7.4 7.9 0 12.4 0 22c0 9.6 8.1 16.6 17.1 16.5 9 0 16.7-6.6 16.7-16.4 0-9.8-7.4-14.2-8.6-15zm.3 27.6c-.2.2-1.9 1.4-3.9 1.6-2 .2-4.7.3-6.4-1.2-.3-.2-.2-.6 0-.8.2-.2.3-.3.6-.3.2 0 .2 0 .3.1.8.6 1.9 1.1 4.2 1.1 2.4 0 4.1-.7 4.8-1.2.3-.2.5 0 .5.1.1.1.2.4-.1.6zM19 31.6c.4-.4 1.1-1 1.7-1.2.6-.3 1-.2 1.6-.2.6 0 1.2 0 1.7.3s.7 1 .9 1.3c.2.4 0 .6-.3.8-.3.1-.3.1-.6-.4-.2-.5-.5-1-1.8-1s-1.7.5-2.3 1c-.6.5-.9.7-1.1.4-.2-.3-.2-.6.2-1zm13.5-7.1c0 1.2-.3 3.2-1.2 4.5-.9 1.3-1.4 1.8-2.5 1.7-1.3-.1-4-4.2-5.7-4.3-2.2-.1-6.8 4.5-10.5 4.5-2.2 0-2.9-.3-3.7-.8-1.1-.8-1.7-2-1.7-3.6 0-2.9 2.7-5.6 6.2-5.7 4.4 0 7.4 4.3 9.6 4.2 1.9 0 5.4-3.7 7.2-3.7 1.7.1 2.2 2 2.3 3.2zm0 0"/><g transform="translate(0 -1)"><linearGradient id="SVGID_8_" gradientUnits="userSpaceOnUse" x1="52.316" y1="5.773" x2="61.861" y2="5.773"><stop offset=".091" stop-color="#afb0b9"/><stop offset=".246" stop-color="#fff"/><stop offset=".294" stop-color="#fcfcfc"/><stop offset=".337" stop-color="#f1f1f3"/><stop offset=".378" stop-color="#dfdfe3"/><stop offset=".416" stop-color="#c5c6cd"/><stop offset=".444" stop-color="#afb0b9"/><stop offset=".703" stop-color="#fff"/><stop offset=".762" stop-color="#fcfcfc"/><stop offset=".814" stop-color="#f1f1f2"/><stop offset=".864" stop-color="#dfdfe2"/><stop offset=".912" stop-color="#c5c6cb"/><stop offset=".959" stop-color="#a5a6ad"/><stop offset="1" stop-color="#81828d"/></linearGradient><path class="st9" d="M57.1 1.1c2.6 0 4.8 2.2 4.8 4.7 0 2.7-2.3 4.8-4.8 4.7-2.5.1-4.8-2-4.8-4.7-.1-2.7 2.1-4.7 4.8-4.7"/><linearGradient id="SVGID_9_" gradientUnits="userSpaceOnUse" x1="52.931" y1="26.312" x2="61.111" y2="26.312"><stop offset=".091" stop-color="#afb0b9"/><stop offset=".246" stop-color="#fff"/><stop offset=".294" stop-color="#fcfcfc"/><stop offset=".337" stop-color="#f1f1f3"/><stop offset=".378" stop-color="#dfdfe3"/><stop offset=".416" stop-color="#c5c6cd"/><stop offset=".444" stop-color="#afb0b9"/><stop offset=".703" stop-color="#fff"/><stop offset=".762" stop-color="#fcfcfc"/><stop offset=".814" stop-color="#f1f1f2"/><stop offset=".864" stop-color="#dfdfe2"/><stop offset=".912" stop-color="#c5c6cb"/><stop offset=".959" stop-color="#a5a6ad"/><stop offset="1" stop-color="#81828d"/></linearGradient><path class="st10" d="M59.7 39.4h-5.5c-.7 0-1.4-.6-1.4-1.3V14.5c0-.7.5-1.3 1.3-1.3h5.5c.7 0 1.4.6 1.4 1.3v23.6c.1.7-.5 1.3-1.3 1.3"/><linearGradient id="SVGID_10_" gradientUnits="userSpaceOnUse" x1="65.882" y1="25.975" x2="91.853" y2="25.975"><stop offset=".091" stop-color="#afb0b9"/><stop offset=".246" stop-color="#fff"/><stop offset=".294" stop-color="#fcfcfc"/><stop offset=".337" stop-color="#f1f1f3"/><stop offset=".378" stop-color="#dfdfe3"/><stop offset=".416" stop-color="#c5c6cd"/><stop offset=".444" stop-color="#afb0b9"/><stop offset=".703" stop-color="#fff"/><stop offset=".762" stop-color="#fcfcfc"/><stop offset=".814" stop-color="#f1f1f2"/><stop offset=".864" stop-color="#dfdfe2"/><stop offset=".912" stop-color="#c5c6cb"/><stop offset=".959" stop-color="#a5a6ad"/><stop offset="1" stop-color="#81828d"/></linearGradient><path class="st11" d="M91.8 21.4c0-5-3.7-8.9-8.8-8.9h-1.4c-2.7 0-5.4 1.3-6.8 3.4l-.7.7v-2.7c0-.3-.4-.7-.7-.7h-6.8c-.3 0-.7.3-.7.6v25.1c0 .3.4.5.7.5h7.5c.3 0 .7-.3.7-.5V24.4c0-2.5 1.9-4.6 4.4-4.6 1.3 0 2.5.5 3.3 1.3.8.8 1.2 2 1.2 3.2v14.5c0 .3.4.7.7.7h6.8c.3 0 .7-.4.7-.7l-.1-17.4z"/></g><linearGradient id="SVGID_11_" gradientUnits="userSpaceOnUse" x1="225.636" y1="19.205" x2="263.988" y2="19.205"><stop offset=".091" stop-color="#afb0b9"/><stop offset=".246" stop-color="#fff"/><stop offset=".294" stop-color="#fcfcfc"/><stop offset=".337" stop-color="#f1f1f3"/><stop offset=".378" stop-color="#dfdfe3"/><stop offset=".416" stop-color="#c5c6cd"/><stop offset=".444" stop-color="#afb0b9"/><stop offset=".703" stop-color="#fff"/><stop offset=".762" stop-color="#fcfcfc"/><stop offset=".814" stop-color="#f1f1f2"/><stop offset=".864" stop-color="#dfdfe2"/><stop offset=".912" stop-color="#c5c6cb"/><stop offset=".959" stop-color="#a5a6ad"/><stop offset="1" stop-color="#81828d"/></linearGradient><path class="st12" d="M246.7 23.1h9.4c-1.6 4.6-6.1 7.9-11.3 7.9-6.3 0-11.6-5.1-11.8-11.3-.3-6.7 5.2-12.3 11.9-12.3 3.1 0 5.9 1.2 8 3.1.5.5 1.3.5 1.8 0l3.4-3.2c.5-.5.5-1.4 0-1.9-3.4-3.2-7.8-5.1-12.8-5.2-10.6-.2-19.5 8.4-19.6 18.9-.1 10.6 8.5 19.2 19.2 19.2 10.2 0 18.6-7.9 19.1-18v-4.4h-17.3c-.7 0-1.3.6-1.3 1.3v4.7c0 .7.6 1.2 1.3 1.2zm0 0"/><linearGradient id="SVGID_12_" gradientUnits="userSpaceOnUse" x1="268.005" y1="19.371" x2="285.587" y2="19.371"><stop offset=".091" stop-color="#afb0b9"/><stop offset=".246" stop-color="#fff"/><stop offset=".294" stop-color="#fcfcfc"/><stop offset=".337" stop-color="#f1f1f3"/><stop offset=".378" stop-color="#dfdfe3"/><stop offset=".416" stop-color="#c5c6cd"/><stop offset=".444" stop-color="#afb0b9"/><stop offset=".703" stop-color="#fff"/><stop offset=".762" stop-color="#fcfcfc"/><stop offset=".814" stop-color="#f1f1f2"/><stop offset=".864" stop-color="#dfdfe2"/><stop offset=".912" stop-color="#c5c6cb"/><stop offset=".959" stop-color="#a5a6ad"/><stop offset="1" stop-color="#81828d"/></linearGradient><path class="st13" d="M279.9 16.3v-4.6c0-.6-.5-1.1-1.1-1.1h-3.9c-.6 0-1.1.5-1.1 1.1v4.6h-4.6c-.6 0-1.1.5-1.1 1.1v3.8c0 .6.5 1.1 1.1 1.1h4.6V27c0 .6.5 1.1 1.1 1.1h3.9c.6 0 1.1-.5 1.1-1.1v-4.6h4.6c.6 0 1.1-.5 1.1-1.1v-3.8c0-.6-.5-1.1-1.1-1.1h-4.6zm0 0"/><linearGradient id="SVGID_13_" gradientUnits="userSpaceOnUse" x1="115.653" y1="19.251" x2="134.887" y2="19.251"><stop offset=".091" stop-color="#afb0b9"/><stop offset=".246" stop-color="#fff"/><stop offset=".294" stop-color="#fcfcfc"/><stop offset=".337" stop-color="#f1f1f3"/><stop offset=".378" stop-color="#dfdfe3"/><stop offset=".416" stop-color="#c5c6cd"/><stop offset=".444" stop-color="#afb0b9"/><stop offset=".703" stop-color="#fff"/><stop offset=".762" stop-color="#fcfcfc"/><stop offset=".814" stop-color="#f1f1f2"/><stop offset=".864" stop-color="#dfdfe2"/><stop offset=".912" stop-color="#c5c6cb"/><stop offset=".959" stop-color="#a5a6ad"/><stop offset="1" stop-color="#81828d"/></linearGradient><path class="st14" d="M116.3 20.5h4.2v17.3c0 .3.3.6.6.6h7.1c.3 0 .6-.3.6-.6V20.6h4.8c.3 0 .6-.2.6-.5l.7-6.4c0-.2 0-.4-.2-.5-.1-.1-.3-.2-.5-.2h-5.5V9c0-1.2.6-1.8 1.9-1.8h3.6c.3 0 .6-.3.6-.6V.7c0-.3-.3-.6-.6-.6H129c-.9 0-3.9.2-6.2 2.4-2.6 2.4-2.3 5.4-2.2 5.9V13h-4.4c-.3 0-.6.3-.6.6v6.3c.1.3.3.6.7.6z"/><linearGradient id="SVGID_14_" gradientUnits="userSpaceOnUse" x1="437.161" y1="31.652" x2="467.941" y2="31.652"><stop offset=".091" stop-color="#afb0b9"/><stop offset=".246" stop-color="#fff"/><stop offset=".294" stop-color="#fcfcfc"/><stop offset=".337" stop-color="#f1f1f3"/><stop offset=".378" stop-color="#dfdfe3"/><stop offset=".416" stop-color="#c5c6cd"/><stop offset=".444" stop-color="#afb0b9"/><stop offset=".703" stop-color="#fff"/><stop offset=".762" stop-color="#fcfcfc"/><stop offset=".814" stop-color="#f1f1f2"/><stop offset=".864" stop-color="#dfdfe2"/><stop offset=".912" stop-color="#c5c6cb"/><stop offset=".959" stop-color="#a5a6ad"/><stop offset="1" stop-color="#81828d"/></linearGradient><path class="st15" d="M437.2 24.9h2.6c.6 0 .8.2.8.8v8.4c0 1 0 1 1 1h22.2c1.1 0 1.1 0 1.1-1.1v-8.4c0-.5.1-.7.7-.7h1.7c.7 0 .8.2.8.9v12.6h-30.8c-.1-4.5-.1-9-.1-13.5z"/><linearGradient id="SVGID_15_" gradientUnits="userSpaceOnUse" x1="456.751" y1="7.905" x2="469.604" y2="7.905"><stop offset=".091" stop-color="#afb0b9"/><stop offset=".246" stop-color="#fff"/><stop offset=".294" stop-color="#fcfcfc"/><stop offset=".337" stop-color="#f1f1f3"/><stop offset=".378" stop-color="#dfdfe3"/><stop offset=".416" stop-color="#c5c6cd"/><stop offset=".444" stop-color="#afb0b9"/><stop offset=".703" stop-color="#fff"/><stop offset=".762" stop-color="#fcfcfc"/><stop offset=".814" stop-color="#f1f1f2"/><stop offset=".864" stop-color="#dfdfe2"/><stop offset=".912" stop-color="#c5c6cb"/><stop offset=".959" stop-color="#a5a6ad"/><stop offset="1" stop-color="#81828d"/></linearGradient><path class="st16" d="M459.5.1c1.1 1.5 2.2 3.1 3.3 4.6 2.1 2.8 4.1 5.5 6.2 8.3l.6.6v.3c-.7.5-1.4 1-2.1 1.6-.5.4-.8.4-1.1-.2-2.2-2.9-4.3-5.8-6.5-8.8l-2.7-3.6c-.6-.7-.6-.7.2-1.3.6-.5 1.3-1 1.9-1.5h.2z"/><linearGradient id="SVGID_16_" gradientUnits="userSpaceOnUse" x1="444.41" y1="23.894" x2="461.783" y2="23.894"><stop offset=".091" stop-color="#afb0b9"/><stop offset=".246" stop-color="#fff"/><stop offset=".294" stop-color="#fcfcfc"/><stop offset=".337" stop-color="#f1f1f3"/><stop offset=".378" stop-color="#dfdfe3"/><stop offset=".416" stop-color="#c5c6cd"/><stop offset=".444" stop-color="#afb0b9"/><stop offset=".703" stop-color="#fff"/><stop offset=".762" stop-color="#fcfcfc"/><stop offset=".814" stop-color="#f1f1f2"/><stop offset=".864" stop-color="#dfdfe2"/><stop offset=".912" stop-color="#c5c6cb"/><stop offset=".959" stop-color="#a5a6ad"/><stop offset="1" stop-color="#81828d"/></linearGradient><path class="st17" d="M460.9 27.3c-1.6-.3-3-.6-4.4-.9-3.7-.8-7.4-1.6-11.1-2.3-.2 0-.4-.1-.6-.1-.4-.1-.5-.3-.4-.6.2-.7.3-1.4.5-2.2.1-.6.3-.7.9-.5 3.7.8 7.5 1.6 11.2 2.4 1.4.3 2.8.6 4.3.9.4.1.6.3.5.7-.2.8-.3 1.5-.5 2.3-.1 0-.3.2-.4.3z"/><linearGradient id="SVGID_17_" gradientUnits="userSpaceOnUse" x1="450.864" y1="12.386" x2="466.296" y2="12.386"><stop offset=".091" stop-color="#afb0b9"/><stop offset=".246" stop-color="#fff"/><stop offset=".294" stop-color="#fcfcfc"/><stop offset=".337" stop-color="#f1f1f3"/><stop offset=".378" stop-color="#dfdfe3"/><stop offset=".416" stop-color="#c5c6cd"/><stop offset=".444" stop-color="#afb0b9"/><stop offset=".703" stop-color="#fff"/><stop offset=".762" stop-color="#fcfcfc"/><stop offset=".814" stop-color="#f1f1f2"/><stop offset=".864" stop-color="#dfdfe2"/><stop offset=".912" stop-color="#c5c6cb"/><stop offset=".959" stop-color="#a5a6ad"/><stop offset="1" stop-color="#81828d"/></linearGradient><path class="st18" d="M466.3 16.5c-.7.8-1.3 1.5-1.8 2.2-.3.4-.6.5-1 .1-2.3-1.9-4.5-3.8-6.8-5.7-1.8-1.5-3.5-2.9-5.3-4.4-.2-.1-.3-.3-.6-.5.7-.8 1.3-1.6 2-2.3.1-.1.6 0 .7.1l4.8 3.9c2.5 2 4.9 4.1 7.4 6.1.2.2.4.3.6.5z"/><linearGradient id="SVGID_18_" gradientUnits="userSpaceOnUse" x1="446.698" y1="17.846" x2="463.517" y2="17.846"><stop offset=".091" stop-color="#afb0b9"/><stop offset=".246" stop-color="#fff"/><stop offset=".294" stop-color="#fcfcfc"/><stop offset=".337" stop-color="#f1f1f3"/><stop offset=".378" stop-color="#dfdfe3"/><stop offset=".416" stop-color="#c5c6cd"/><stop offset=".444" stop-color="#afb0b9"/><stop offset=".703" stop-color="#fff"/><stop offset=".762" stop-color="#fcfcfc"/><stop offset=".814" stop-color="#f1f1f2"/><stop offset=".864" stop-color="#dfdfe2"/><stop offset=".912" stop-color="#c5c6cb"/><stop offset=".959" stop-color="#a5a6ad"/><stop offset="1" stop-color="#81828d"/></linearGradient><path class="st19" d="M463.5 20c-.1.2-.1.3-.2.5-.3.6-.6 1.3-.9 1.9-.2.4-.4.6-.9.4-4.8-2.2-9.6-4.5-14.4-6.7-.5-.2-.6-.4-.3-.9.3-.6.6-1.2.9-1.9.2-.6.5-.6 1-.3 2.7 1.3 5.4 2.5 8.2 3.8 2 .9 4.1 1.9 6.1 2.8.1.1.3.3.5.4z"/><linearGradient id="SVGID_19_" gradientUnits="userSpaceOnUse" x1="443.909" y1="29.918" x2="461.283" y2="29.918"><stop offset=".091" stop-color="#afb0b9"/><stop offset=".246" stop-color="#fff"/><stop offset=".294" stop-color="#fcfcfc"/><stop offset=".337" stop-color="#f1f1f3"/><stop offset=".378" stop-color="#dfdfe3"/><stop offset=".416" stop-color="#c5c6cd"/><stop offset=".444" stop-color="#afb0b9"/><stop offset=".703" stop-color="#fff"/><stop offset=".762" stop-color="#fcfcfc"/><stop offset=".814" stop-color="#f1f1f2"/><stop offset=".864" stop-color="#dfdfe2"/><stop offset=".912" stop-color="#c5c6cb"/><stop offset=".959" stop-color="#a5a6ad"/><stop offset="1" stop-color="#81828d"/></linearGradient><path class="st20" d="M452.6 31.6h-7.8c-.6 0-.9-.2-.8-.8V29c0-.6.2-.8.8-.8h15.8c.6 0 .9.2.8.8v1.9c0 .6-.2.7-.7.7h-8.1z"/><path class="st21" d="M206.5 55.6c-1 .5-2.1.8-3.1 1.1 1.2-1.1 2.1-2.5 2.6-4.1.1-.5-.3-.8-.8-.6-1.5.9-3.1 1.6-4.8 2h-.3c-.3 0-.6-.1-.8-.3-1.8-1.6-4.1-2.5-6.5-2.5-1 0-2.1.2-3.1.5-3.2 1-5.7 3.6-6.4 6.9-.3 1.2-.4 2.4-.2 3.6 0 .1 0 .2-.1.3-.1.1-.2.1-.3.1-7-.6-13.3-4-17.7-9.5-.2-.3-.7-.2-.8.1-.9 1.5-1.3 3.2-1.3 5 0 2.7 1.1 5.2 2.9 7-.8-.2-1.5-.5-2.2-.9-.3-.2-.8.1-.8.4 0 4 2.3 7.5 5.8 9.1h-.2c-.6 0-1.1-.1-1.7-.2-.4-.1-.7.3-.6.7 1.1 3.5 4.2 6.1 7.8 6.7-3 2-6.5 3.1-10.2 3.1h-1.1c-.4 0-.6.2-.7.6-.1.3.1.7.4.9 4.1 2.4 8.8 3.7 13.6 3.7 4.2 0 8.1-.8 11.6-2.5 3.2-1.5 6.1-3.6 8.5-6.4 2.2-2.5 4-5.5 5.2-8.7 1.2-3.1 1.8-6.4 1.8-9.5V62c0-.5.2-1 .6-1.3 1.5-1.2 2.8-2.7 3.9-4.3-.1-.5-.5-1-1-.8zm0 0"/><path class="st2" d="M161.6 51.2h45.8v38.1h-45.8z"/><defs><path id="SVGID_20_" d="M301 51.1h43.6v38.4H301z"/></defs><clipPath id="SVGID_21_"><use xlink:href="#SVGID_20_" overflow="visible"/></clipPath><path class="st22" d="M342.8 73.5c-.7-1-1-2.1-1-3.3 0-10.6-8.5-19.1-19-19.1-2.3 0-4.5.4-6.5 1.2-1.1.4-2.3.5-3.4.2-1-.3-2.1-.4-3.2-.3-4.6.3-8.4 4.2-8.6 8.8-.1 2.2.6 4.3 1.7 6 .7 1 1 2.1 1 3.3 0 10.6 8.5 19.1 19 19.1 2.3 0 4.5-.4 6.5-1.2 1.1-.4 2.3-.5 3.4-.2 1 .3 2.1.4 3.2.3 4.6-.3 8.4-4.1 8.6-8.8.2-2.3-.5-4.3-1.7-6zm-19.3-6.8c3.8.9 9.6 2.3 9.6 8.7 0 3.2-1.5 5.6-4.4 6.8-2 .9-4.3 1-6.2 1-6 0-9.8-4.7-10-4.9-1-1.2-.8-3.1.5-4 1.2-1 3-.8 4 .5 0 0 2.3 2.6 5.5 2.7 3.9.1 4.8-1 4.9-2 .1-1.2-.9-2.1-5.2-3.1-3.6-.9-9.2-2.2-9.2-8.1 0-1.8.7-7.9 10.3-7.9 6 0 9.6 4.8 9.8 5 .9 1.3.7 3.1-.6 4-1.3.9-3 .7-4-.6-.1-.1-2.1-2.4-5.2-2.7-2.3-.2-4.6.6-4.6 1.9.1 1.3.7 1.8 4.8 2.7zm0 0"/><path class="st23" d="M391 77.9l-6.6-5.8-19 16.2c.7.7 1.6 1 2.6 1h46c1 0 1.9-.4 2.6-1l-19-16.2-6.6 5.8zm0 0"/><path class="st23" d="M416.6 52.2c-.7-.7-1.6-1-2.6-1h-45.9c-1 0-1.9.4-2.6 1L391 74.1l25.6-21.9zm-52.4 2.3v31.8l18.5-15.7-18.5-16.1zm35.1 16l18.5 15.7V54.5l-18.5 16zm0 0"/><path class="st24" d="M57.1 52.1c2.6 0 4.8 2.2 4.8 4.7 0 2.7-2.3 4.8-4.8 4.7-2.5.1-4.8-2-4.8-4.7-.1-2.7 2.1-4.7 4.8-4.7m2.6 38.3h-5.5c-.7 0-1.4-.6-1.4-1.3V65.5c0-.7.5-1.3 1.3-1.3h5.5c.7 0 1.4.6 1.4 1.3v23.6c.1.7-.5 1.3-1.3 1.3m32.1-18c0-5-3.7-8.9-8.8-8.9h-1.4c-2.7 0-5.4 1.3-6.8 3.4l-.7.7v-2.7c0-.3-.4-.7-.7-.7h-6.8c-.3 0-.7.3-.7.6v25.1c0 .3.4.5.7.5h7.5c.3 0 .7-.3.7-.5V75.4c0-2.5 1.9-4.6 4.4-4.6 1.3 0 2.5.5 3.3 1.3.8.8 1.2 2 1.2 3.2v14.5c0 .3.4.7.7.7h6.8c.3 0 .7-.4.7-.7l-.1-17.4z" transform="translate(0 -1)"/><defs><path id="SVGID_22_" d="M225.6 51.1h60v38.3h-60z"/></defs><clipPath id="SVGID_23_"><use xlink:href="#SVGID_22_" overflow="visible"/></clipPath><path class="st25" d="M246.7 74.1h9.4c-1.6 4.6-6.1 7.9-11.3 7.9-6.3 0-11.6-5.1-11.8-11.3-.3-6.7 5.2-12.3 11.9-12.3 3.1 0 5.9 1.2 8 3.1.5.5 1.3.5 1.8 0l3.4-3.2c.5-.5.5-1.4 0-1.9-3.4-3.2-7.8-5.1-12.8-5.2-10.6-.2-19.5 8.4-19.6 18.9-.1 10.6 8.5 19.2 19.2 19.2 10.2 0 18.6-7.9 19.1-18v-4.4h-17.3c-.7 0-1.3.6-1.3 1.3v4.7c0 .7.6 1.2 1.3 1.2zm0 0"/><path class="st26" d="M279.9 67.3v-4.6c0-.6-.5-1.1-1.1-1.1h-3.9c-.6 0-1.1.5-1.1 1.1v4.6h-4.6c-.6 0-1.1.5-1.1 1.1v3.8c0 .6.5 1.1 1.1 1.1h4.6V78c0 .6.5 1.1 1.1 1.1h3.9c.6 0 1.1-.5 1.1-1.1v-4.6h4.6c.6 0 1.1-.5 1.1-1.1v-3.8c0-.6-.5-1.1-1.1-1.1h-4.6zm0 0"/><path class="st27" d="M116.3 71.5h4.2v17.3c0 .3.3.6.6.6h7.1c.3 0 .6-.3.6-.6V71.6h4.8c.3 0 .6-.2.6-.5l.7-6.4c0-.2 0-.4-.2-.5-.1-.1-.3-.2-.5-.2h-5.5v-4c0-1.2.6-1.8 1.9-1.8h3.6c.3 0 .6-.3.6-.6v-5.8c0-.3-.3-.6-.6-.6H129c-.9 0-3.9.2-6.2 2.4-2.6 2.4-2.3 5.4-2.2 5.9V64h-4.4c-.3 0-.6.3-.6.6v6.3c.1.3.3.6.7.6z"/><path class="st28" d="M437.2 75.9h2.6c.6 0 .8.2.8.8v8.4c0 1 0 1 1 1h22.2c1.1 0 1.1 0 1.1-1.1v-8.4c0-.5.1-.7.7-.7h1.7c.7 0 .8.2.8.9v12.6h-30.8c-.1-4.5-.1-9-.1-13.5z"/><path class="st29" d="M459.5 51.1c1.1 1.5 2.2 3.1 3.3 4.6 2.1 2.8 4.1 5.5 6.2 8.3l.6.6v.3c-.7.5-1.4 1-2.1 1.6-.5.4-.8.4-1.1-.2-2.2-2.9-4.3-5.8-6.5-8.8l-2.7-3.6c-.6-.7-.6-.7.2-1.3.6-.5 1.3-1 1.9-1.5h.2zm1.4 27.2c-1.6-.3-3-.6-4.4-.9-3.7-.8-7.4-1.6-11.1-2.3-.2 0-.4-.1-.6-.1-.4-.1-.5-.3-.4-.6.2-.7.3-1.4.5-2.2.1-.6.3-.7.9-.5 3.7.8 7.5 1.6 11.2 2.4 1.4.3 2.8.6 4.3.9.4.1.6.3.5.7-.2.8-.3 1.5-.5 2.3-.1 0-.3.2-.4.3zm5.4-10.8c-.7.8-1.3 1.5-1.8 2.2-.3.4-.6.5-1 .1-2.3-1.9-4.5-3.8-6.8-5.7-1.8-1.5-3.5-2.9-5.3-4.4-.2-.1-.3-.3-.6-.5.7-.8 1.3-1.6 2-2.3.1-.1.6 0 .7.1l4.8 3.9c2.5 2 4.9 4.1 7.4 6.1.2.2.4.3.6.5zm-2.8 3.5c-.1.2-.1.3-.2.5-.3.6-.6 1.3-.9 1.9-.2.4-.4.6-.9.4-4.8-2.2-9.6-4.5-14.4-6.7-.5-.2-.6-.4-.3-.9.3-.6.6-1.2.9-1.9.2-.6.5-.6 1-.3 2.7 1.3 5.4 2.5 8.2 3.8 2 .9 4.1 1.9 6.1 2.8.1.1.3.3.5.4zm-10.9 11.6h-7.8c-.6 0-.9-.2-.8-.8V80c0-.6.2-.8.8-.8h15.8c.6 0 .9.2.8.8v1.9c0 .6-.2.7-.7.7h-8.1z"/></svg>