<?xml version="1.0" encoding="utf-8"?>
<!-- Generator: Adobe Illustrator 19.2.1, SVG Export Plug-In . SVG Version: 6.00 Build 0)  -->
<svg version="1.1" id="Layer_1" xmlns="http://www.w3.org/2000/svg" xmlns:xlink="http://www.w3.org/1999/xlink" x="0px" y="0px"
	 viewBox="0 0 300 300" style="enable-background:new 0 0 300 300;" xml:space="preserve">
<style type="text/css">
	.st0{fill:#888888;}
	.st1{fill-rule:evenodd;clip-rule:evenodd;fill:#888888;}
</style>
<g>
	<path class="st0" d="M83.1,115.8c0-6.8-5.6-12.4-12.4-12.4s-12.4,5.6-12.4,12.4c0,3.6,1.6,6.9,4,9.1l0,0l0.4,0.3c0,0,0.1,0,0.1,0.1
		c0.2,0.2,0.4,0.3,0.7,0.5c0.1,0.1,0.1,0.1,0.2,0.2c0.2,0.2,0.5,0.3,0.7,0.5c0.1,0,0.1,0.1,0.2,0.1c0.3,0.2,0.6,0.3,0.8,0.4
		c0,0,0,0,0.1,0c0.9,0.4,1.9,0.8,3,0.9c0,0,0.1,0,0.1,0c0.3,0.1,0.7,0.1,1,0.1c0,0,0.1,0,0.1,0c0.3,0,0.7,0,1,0c0.3,0,0.7,0,1,0
		c0,0,0.1,0,0.1,0c0.3,0,0.7-0.1,1-0.1c0,0,0.1,0,0.1,0c1-0.2,2-0.5,3-0.9c0,0,0.1,0,0.1,0c0.3-0.1,0.6-0.3,0.8-0.4
		c0.1,0,0.1-0.1,0.2-0.1c0.2-0.1,0.5-0.3,0.7-0.5c0.1-0.1,0.2-0.1,0.2-0.2c0.2-0.1,0.4-0.3,0.6-0.4c0,0,0.1-0.1,0.1-0.1L79,125l0,0
		C81.5,122.7,83.1,119.4,83.1,115.8L83.1,115.8z M59.2,115.8c0-6.3,5.2-11.5,11.5-11.5c6.3,0,11.5,5.2,11.5,11.5
		c0,3.4-1.5,6.5-3.9,8.6c-0.1-0.1-0.3-0.2-0.4-0.2l-3.8-1.9c-0.3-0.2-0.6-0.5-0.6-0.9V120c0.1-0.1,0.2-0.2,0.3-0.4
		c0.5-0.7,0.9-1.5,1.2-2.3c0.6-0.3,0.9-0.8,0.9-1.5v-1.6c0-0.4-0.1-0.8-0.4-1.1v-2.1c0-0.2,0.1-1.6-0.9-2.6c-0.8-0.9-2.2-1.4-4-1.4
		c-1.8,0-3.2,0.5-4,1.4c-1,1.1-0.9,2.4-0.9,2.6v2.1c-0.3,0.3-0.4,0.7-0.4,1.1v1.6c0,0.5,0.2,1,0.6,1.3c0.4,1.4,1.1,2.5,1.4,2.9v1.3
		c0,0.4-0.2,0.7-0.5,0.9l-3.6,1.9c-0.1,0.1-0.2,0.1-0.3,0.2C60.6,122.2,59.2,119.2,59.2,115.8L59.2,115.8z M77.4,125.1
		c-0.2,0.1-0.3,0.2-0.5,0.3c-0.1,0-0.1,0.1-0.2,0.1c-0.2,0.1-0.4,0.3-0.7,0.4c0,0-0.1,0-0.1,0.1c-0.5,0.3-1,0.5-1.6,0.7
		c0,0,0,0-0.1,0c-0.3,0.1-0.6,0.2-0.9,0.2h0c-0.3,0.1-0.6,0.1-0.9,0.2c0,0,0,0,0,0c-0.3,0-0.6,0.1-0.8,0.1c-0.1,0-0.1,0-0.2,0
		c-0.3,0-0.6,0-0.8,0c-0.3,0-0.6,0-0.9,0c0,0-0.1,0-0.1,0c-0.3,0-0.6-0.1-0.9-0.1l0,0c-0.6-0.1-1.2-0.2-1.8-0.4c0,0,0,0-0.1,0
		c-0.3-0.1-0.6-0.2-0.8-0.3c0,0,0,0,0,0c-0.3-0.1-0.5-0.2-0.8-0.4c0,0-0.1,0-0.1-0.1c-0.2-0.1-0.5-0.3-0.7-0.4
		c-0.1,0-0.1-0.1-0.2-0.1c-0.2-0.1-0.4-0.3-0.6-0.4c0,0,0,0-0.1,0l0,0l3.6-1.9c0.6-0.3,1-1,1-1.7v-1.6l-0.1-0.1c0,0-1-1.2-1.4-2.8
		l0-0.2l-0.2-0.1c-0.2-0.1-0.3-0.4-0.3-0.6v-1.6c0-0.2,0.1-0.4,0.3-0.6l0.1-0.1v-2.5l0-0.1c0,0-0.1-1.1,0.6-2
		c0.7-0.7,1.8-1.1,3.3-1.1c1.5,0,2.7,0.4,3.3,1.1c0.8,0.9,0.6,2,0.6,2l0,2.6l0.1,0.1c0.2,0.1,0.3,0.3,0.3,0.6v1.6
		c0,0.3-0.2,0.6-0.5,0.7l-0.2,0.1l-0.1,0.2c-0.3,0.8-0.6,1.6-1.1,2.3c-0.1,0.2-0.2,0.3-0.3,0.4l-0.1,0.1v1.7c0,0.7,0.4,1.4,1.1,1.7
		l3.8,1.9c0,0,0,0,0.1,0C77.5,125,77.4,125.1,77.4,125.1L77.4,125.1z M77.4,125.1"/>
</g>
<g>
	<path class="st1" d="M162.1,117.2h-8.1c-0.4,0-0.8,0.4-0.8,0.8c0,0.4,0.4,0.8,0.8,0.8h8.1c0.4,0,0.8-0.4,0.8-0.8
		C162.9,117.6,162.5,117.2,162.1,117.2L162.1,117.2z M163.7,112.3h-11.4c-0.4,0-0.8,0.4-0.8,0.8c0,0.4,0.4,0.8,0.8,0.8h11.4
		c0.4,0,0.8-0.4,0.8-0.8C164.5,112.7,164.1,112.3,163.7,112.3L163.7,112.3z M158,103.4c-7.2,0-13,5.1-13,11.4c0,3.6,1.9,6.8,4.9,8.9
		v5.8l5.7-3.5c0.8,0.1,1.6,0.2,2.4,0.2c7.2,0,13-5.1,13-11.4C171,108.5,165.2,103.4,158,103.4L158,103.4z M158,124.5
		c-0.9,0-1.9-0.1-2.7-0.3l-3.8,2.3l0.1-3.8c-2.9-1.8-4.9-4.7-4.9-8c0-5.4,5.1-9.8,11.4-9.8c6.3,0,11.4,4.4,11.4,9.8
		C169.4,120.2,164.3,124.5,158,124.5L158,124.5z M158,124.5"/>
</g>
<g>
	<path class="st0" d="M106.5,116c0.1,0,0.2,0,0.3-0.1l1.8-1.8v9.5h-1.3c-0.2,0-0.4,0.2-0.4,0.4c0,0.2,0.2,0.4,0.4,0.4h3.4
		c0.2,0,0.4-0.2,0.4-0.4c0-0.2-0.2-0.4-0.4-0.4h-1.3v-10.5c0-0.1,0-0.1,0-0.2c0-0.1-0.1-0.2-0.2-0.2c-0.1,0-0.2,0-0.3,0
		c-0.1,0-0.1,0.1-0.1,0.1l-2.5,2.5c-0.2,0.2-0.2,0.4,0,0.6C106.3,116,106.4,116,106.5,116L106.5,116z M106.5,116"/>
	<path class="st0" d="M113.6,121.1c0,1.9,1.5,3.4,3.4,3.4c1.9,0,3.4-1.5,3.4-3.4c0-1.3-0.7-2.4-1.8-3c0.8-0.5,1.4-1.4,1.4-2.5
		c0-1.6-1.3-2.9-2.9-2.9c-1.6,0-2.9,1.3-2.9,2.9c0,1.1,0.6,2,1.4,2.5C114.4,118.7,113.6,119.8,113.6,121.1L113.6,121.1z
		 M114.9,115.6c0-1.2,0.9-2.1,2.1-2.1c1.2,0,2.1,0.9,2.1,2.1c0,1.2-0.9,2.1-2.1,2.1C115.9,117.7,114.9,116.8,114.9,115.6
		L114.9,115.6z M117,118.6c1.4,0,2.5,1.1,2.5,2.5c0,1.4-1.1,2.5-2.5,2.5c-1.4,0-2.5-1.1-2.5-2.5C114.5,119.7,115.6,118.6,117,118.6
		L117,118.6z M117,118.6"/>
	<path class="st0" d="M112,103c-0.2,0-0.4,0.2-0.4,0.4c0,0.2,0.2,0.4,0.4,0.4c0.5,0,1,0.4,1.2,0.8h0.9C113.8,103.7,113,103,112,103
		L112,103z M112,103"/>
	<path class="st0" d="M114.5,103c-0.2,0-0.4,0.2-0.4,0.4c0,0.2,0.2,0.4,0.4,0.4c0.5,0,1,0.4,1.2,0.8h0.9
		C116.4,103.7,115.5,103,114.5,103L114.5,103z M114.5,103"/>
	<path class="st0" d="M117,103c-0.2,0-0.4,0.2-0.4,0.4c0,0.2,0.2,0.4,0.4,0.4c0.5,0,1,0.4,1.2,0.8h0.9C118.9,103.7,118,103,117,103
		L117,103z M117,103"/>
	<path class="st0" d="M119.1,104.7c0,0.1,0,0.3,0,0.4c0,1.2-0.9,2.1-2.1,2.1c-0.2,0-0.4-0.2-0.4-0.4c0-0.2,0.2-0.4,0.4-0.4
		c0.7,0,1.3-0.6,1.3-1.3c0-0.1,0-0.3-0.1-0.4h-1.6c0,0.1,0,0.3,0,0.4c0,1.2-0.9,2.1-2.1,2.1c-0.2,0-0.4-0.2-0.4-0.4
		c0-0.2,0.2-0.4,0.4-0.4c0.7,0,1.3-0.6,1.3-1.3c0-0.1,0-0.3-0.1-0.4H114c0,0.1,0,0.3,0,0.4c0,1.2-0.9,2.1-2.1,2.1
		c-0.2,0-0.4-0.2-0.4-0.4c0-0.2,0.2-0.4,0.4-0.4c0.7,0,1.3-0.6,1.3-1.3c0-0.1,0-0.3-0.1-0.4h-1.7c0,0.1,0,0.3,0,0.4
		c0,1.2-0.9,2.1-2.1,2.1c-0.2,0-0.4-0.2-0.4-0.4c0-0.2,0.2-0.4,0.4-0.4c0.7,0,1.3-0.6,1.3-1.3c0-0.1,0-0.3-0.1-0.4h-2.4
		c0.2-0.5,0.6-0.8,1.2-0.8c0.5,0,1,0.4,1.2,0.8h0.9c-0.2-1-1-1.7-2.1-1.7c-1,0-1.9,0.7-2.1,1.7H101V127h24.4v-22.3H119.1z
		 M124.6,126.1h-22.7v-15.6h22.7V126.1z M124.6,126.1"/>
</g>
</svg>
