<?xml version="1.0" encoding="utf-8"?>
<!-- Generator: Adobe Illustrator 19.2.1, SVG Export Plug-In . SVG Version: 6.00 Build 0)  -->
<svg version="1.1" id="Layer_1" xmlns="http://www.w3.org/2000/svg" xmlns:xlink="http://www.w3.org/1999/xlink" x="0px" y="0px"
	 viewBox="0 0 469.6 89.5" style="enable-background:new 0 0 469.6 89.5;" xml:space="preserve">
<style type="text/css">
	.st0{fill:#0E6BA7;}
	.st1{fill:url(#SVGID_1_);}
	.st2{fill:none;}
	.st3{fill:url(#SVGID_2_);}
	.st4{fill:url(#SVGID_3_);}
	.st5{fill:url(#SVGID_4_);}
	.st6{fill:url(#SVGID_5_);}
	.st7{fill:url(#SVGID_6_);}
	.st8{fill:url(#SVGID_7_);}
	.st9{fill:url(#SVGID_8_);}
	.st10{fill:url(#SVGID_9_);}
	.st11{fill:url(#SVGID_10_);}
	.st12{fill:url(#SVGID_11_);}
	.st13{fill:url(#SVGID_12_);}
	.st14{fill:url(#SVGID_13_);}
	.st15{fill:url(#SVGID_14_);}
	.st16{fill:url(#SVGID_15_);}
	.st17{fill:url(#SVGID_16_);}
	.st18{fill:url(#SVGID_17_);}
	.st19{fill:url(#SVGID_18_);}
	.st20{fill:url(#SVGID_19_);}
	.st21{fill:#28A9E0;}
	.st22{clip-path:url(#SVGID_21_);fill:#00AAF2;}
	.st23{fill:#F03921;}
	.st24{fill:#107BAB;}
	.st25{clip-path:url(#SVGID_23_);fill:#F34A38;}
	.st26{fill:#F34A38;}
	.st27{fill:#385C8E;}
	.st28{fill:#BCBBBB;}
	.st29{fill:#F48024;}
</style>
<g>
	<g>
		<g>
			<path class="st0" d="M25.2,58.1c-2-1.2-3.8-1.7-5.7-2.9c-1.2-0.8-2.8-2.6-4.1-4.2c-0.2,2.6-1,3.6-1.9,4.4
				c-1.9,1.5-3.1,1.9-4.7,2.8C7.4,58.9,0,63.4,0,73c0,9.6,8.1,16.6,17.1,16.5c9,0,16.7-6.6,16.7-16.4C33.8,63.3,26.4,58.9,25.2,58.1
				L25.2,58.1z M25.5,85.7c-0.2,0.2-1.9,1.4-3.9,1.6c-2,0.2-4.7,0.3-6.4-1.2c-0.3-0.2-0.2-0.6,0-0.8c0.2-0.2,0.3-0.3,0.6-0.3
				c0.2,0,0.2,0,0.3,0.1c0.8,0.6,1.9,1.1,4.2,1.1c2.4,0,4.1-0.7,4.8-1.2c0.3-0.2,0.5,0,0.5,0.1C25.7,85.2,25.8,85.5,25.5,85.7
				L25.5,85.7z M19,82.6c0.4-0.4,1.1-1,1.7-1.2c0.6-0.3,1-0.2,1.6-0.2c0.6,0,1.2,0,1.7,0.3c0.5,0.3,0.7,1,0.9,1.3
				c0.2,0.4,0,0.6-0.3,0.8c-0.3,0.1-0.3,0.1-0.6-0.4c-0.2-0.5-0.5-1-1.8-1c-1.3,0-1.7,0.5-2.3,1c-0.6,0.5-0.9,0.7-1.1,0.4
				C18.6,83.3,18.6,83,19,82.6L19,82.6z M32.5,75.5c0,1.2-0.3,3.2-1.2,4.5c-0.9,1.3-1.4,1.8-2.5,1.7c-1.3-0.1-4-4.2-5.7-4.3
				c-2.2-0.1-6.8,4.5-10.5,4.5c-2.2,0-2.9-0.3-3.7-0.8c-1.1-0.8-1.7-2-1.7-3.6c0-2.9,2.7-5.6,6.2-5.7c4.4,0,7.4,4.3,9.6,4.2
				c1.9,0,5.4-3.7,7.2-3.7C31.9,72.4,32.4,74.3,32.5,75.5L32.5,75.5z M32.5,75.5"/>
		</g>
	</g>
</g>
<linearGradient id="SVGID_1_" gradientUnits="userSpaceOnUse" x1="161.5712" y1="19.1801" x2="207.2457" y2="19.1801">
	<stop  offset="9.128630e-002" style="stop-color:#AFB0B9"/>
	<stop  offset="0.2459" style="stop-color:#FFFFFF"/>
	<stop  offset="0.2943" style="stop-color:#FCFCFC"/>
	<stop  offset="0.337" style="stop-color:#F1F1F3"/>
	<stop  offset="0.3775" style="stop-color:#DFDFE3"/>
	<stop  offset="0.4164" style="stop-color:#C5C6CD"/>
	<stop  offset="0.4437" style="stop-color:#AFB0B9"/>
	<stop  offset="0.7029" style="stop-color:#FFFFFF"/>
	<stop  offset="0.7622" style="stop-color:#FCFCFC"/>
	<stop  offset="0.8144" style="stop-color:#F1F1F2"/>
	<stop  offset="0.8641" style="stop-color:#DFDFE2"/>
	<stop  offset="0.9121" style="stop-color:#C5C6CB"/>
	<stop  offset="0.9585" style="stop-color:#A5A6AD"/>
	<stop  offset="1" style="stop-color:#81828D"/>
</linearGradient>
<path class="st1" d="M206.5,4.6c-1,0.5-2.1,0.8-3.1,1.1c1.2-1.1,2.1-2.5,2.6-4.1c0.1-0.5-0.3-0.8-0.8-0.6c-1.5,0.9-3.1,1.6-4.8,2
	c-0.1,0-0.2,0-0.3,0c-0.3,0-0.6-0.1-0.8-0.3c-1.8-1.6-4.1-2.5-6.5-2.5c-1,0-2.1,0.2-3.1,0.5c-3.2,1-5.7,3.6-6.4,6.9
	c-0.3,1.2-0.4,2.4-0.2,3.6c0,0.1,0,0.2-0.1,0.3c-0.1,0.1-0.2,0.1-0.3,0.1c0,0,0,0,0,0c-7-0.6-13.3-4-17.7-9.5
	c-0.2-0.3-0.7-0.2-0.8,0.1c-0.9,1.5-1.3,3.2-1.3,5c0,2.7,1.1,5.2,2.9,7c-0.8-0.2-1.5-0.5-2.2-0.9c-0.3-0.2-0.8,0.1-0.8,0.4
	c0,4,2.3,7.5,5.8,9.1c-0.1,0-0.1,0-0.2,0c-0.6,0-1.1-0.1-1.7-0.2c-0.4-0.1-0.7,0.3-0.6,0.7c1.1,3.5,4.2,6.1,7.8,6.7
	c-3,2-6.5,3.1-10.2,3.1l-1.1,0c-0.4,0-0.6,0.2-0.7,0.6c-0.1,0.3,0.1,0.7,0.4,0.9c4.1,2.4,8.8,3.7,13.6,3.7c4.2,0,8.1-0.8,11.6-2.5
	c3.2-1.5,6.1-3.6,8.5-6.4c2.2-2.5,4-5.5,5.2-8.7c1.2-3.1,1.8-6.4,1.8-9.5V11c0-0.5,0.2-1,0.6-1.3c1.5-1.2,2.8-2.7,3.9-4.3
	C207.4,4.9,207,4.4,206.5,4.6L206.5,4.6z M206.5,4.6"/>
<rect x="161.6" y="0.2" class="st2" width="45.8" height="38.1"/>
<linearGradient id="SVGID_2_" gradientUnits="userSpaceOnUse" x1="301.0329" y1="19.1745" x2="344.6016" y2="19.1745">
	<stop  offset="9.128630e-002" style="stop-color:#AFB0B9"/>
	<stop  offset="0.2459" style="stop-color:#FFFFFF"/>
	<stop  offset="0.2943" style="stop-color:#FCFCFC"/>
	<stop  offset="0.337" style="stop-color:#F1F1F3"/>
	<stop  offset="0.3775" style="stop-color:#DFDFE3"/>
	<stop  offset="0.4164" style="stop-color:#C5C6CD"/>
	<stop  offset="0.4437" style="stop-color:#AFB0B9"/>
	<stop  offset="0.7029" style="stop-color:#FFFFFF"/>
	<stop  offset="0.7622" style="stop-color:#FCFCFC"/>
	<stop  offset="0.8144" style="stop-color:#F1F1F2"/>
	<stop  offset="0.8641" style="stop-color:#DFDFE2"/>
	<stop  offset="0.9121" style="stop-color:#C5C6CB"/>
	<stop  offset="0.9585" style="stop-color:#A5A6AD"/>
	<stop  offset="1" style="stop-color:#81828D"/>
</linearGradient>
<path class="st3" d="M342.8,22.5c-0.7-1-1-2.1-1-3.3c0,0,0,0,0,0c0-10.6-8.5-19.1-19-19.1c-2.3,0-4.5,0.4-6.5,1.2
	c-1.1,0.4-2.3,0.5-3.4,0.2c-1-0.3-2.1-0.4-3.2-0.3c-4.6,0.3-8.4,4.2-8.6,8.8c-0.1,2.2,0.6,4.3,1.7,6c0.7,1,1,2.1,1,3.3v0
	c0,10.6,8.5,19.1,19,19.1c2.3,0,4.5-0.4,6.5-1.2c1.1-0.4,2.3-0.5,3.4-0.2c1,0.3,2.1,0.4,3.2,0.3c4.6-0.3,8.4-4.1,8.6-8.8
	C344.7,26.2,344,24.2,342.8,22.5L342.8,22.5z M323.5,15.7c3.8,0.9,9.6,2.3,9.6,8.7c0,3.2-1.5,5.6-4.4,6.8c-2,0.9-4.3,1-6.2,1
	c-6,0-9.8-4.7-10-4.9c-1-1.2-0.8-3.1,0.5-4c1.2-1,3-0.8,4,0.5c0,0,2.3,2.6,5.5,2.7c3.9,0.1,4.8-1,4.9-2c0.1-1.2-0.9-2.1-5.2-3.1
	c-3.6-0.9-9.2-2.2-9.2-8.1c0-1.8,0.7-7.9,10.3-7.9c6,0,9.6,4.8,9.8,5c0.9,1.3,0.7,3.1-0.6,4c-1.3,0.9-3,0.7-4-0.6
	c-0.1-0.1-2.1-2.4-5.2-2.7c-2.3-0.2-4.6,0.6-4.6,1.9C318.8,14.3,319.4,14.8,323.5,15.7L323.5,15.7z M323.5,15.7"/>
<g>
	<linearGradient id="SVGID_3_" gradientUnits="userSpaceOnUse" x1="365.4245" y1="29.7506" x2="416.599" y2="29.7506">
		<stop  offset="9.128630e-002" style="stop-color:#AFB0B9"/>
		<stop  offset="0.2459" style="stop-color:#FFFFFF"/>
		<stop  offset="0.2943" style="stop-color:#FCFCFC"/>
		<stop  offset="0.337" style="stop-color:#F1F1F3"/>
		<stop  offset="0.3775" style="stop-color:#DFDFE3"/>
		<stop  offset="0.4164" style="stop-color:#C5C6CD"/>
		<stop  offset="0.4437" style="stop-color:#AFB0B9"/>
		<stop  offset="0.7029" style="stop-color:#FFFFFF"/>
		<stop  offset="0.7622" style="stop-color:#FCFCFC"/>
		<stop  offset="0.8144" style="stop-color:#F1F1F2"/>
		<stop  offset="0.8641" style="stop-color:#DFDFE2"/>
		<stop  offset="0.9121" style="stop-color:#C5C6CB"/>
		<stop  offset="0.9585" style="stop-color:#A5A6AD"/>
		<stop  offset="1" style="stop-color:#81828D"/>
	</linearGradient>
	<path class="st4" d="M391,26.9l-6.6-5.8l-19,16.2c0.7,0.7,1.6,1,2.6,1H414c1,0,1.9-0.4,2.6-1l-19-16.2L391,26.9z M391,26.9"/>
	<linearGradient id="SVGID_4_" gradientUnits="userSpaceOnUse" x1="365.4245" y1="11.5946" x2="416.599" y2="11.5946">
		<stop  offset="9.128630e-002" style="stop-color:#AFB0B9"/>
		<stop  offset="0.2459" style="stop-color:#FFFFFF"/>
		<stop  offset="0.2943" style="stop-color:#FCFCFC"/>
		<stop  offset="0.337" style="stop-color:#F1F1F3"/>
		<stop  offset="0.3775" style="stop-color:#DFDFE3"/>
		<stop  offset="0.4164" style="stop-color:#C5C6CD"/>
		<stop  offset="0.4437" style="stop-color:#AFB0B9"/>
		<stop  offset="0.7029" style="stop-color:#FFFFFF"/>
		<stop  offset="0.7622" style="stop-color:#FCFCFC"/>
		<stop  offset="0.8144" style="stop-color:#F1F1F2"/>
		<stop  offset="0.8641" style="stop-color:#DFDFE2"/>
		<stop  offset="0.9121" style="stop-color:#C5C6CB"/>
		<stop  offset="0.9585" style="stop-color:#A5A6AD"/>
		<stop  offset="1" style="stop-color:#81828D"/>
	</linearGradient>
	<path class="st5" d="M416.6,1.2c-0.7-0.7-1.6-1-2.6-1h-45.9c-1,0-1.9,0.4-2.6,1L391,23.1L416.6,1.2z M416.6,1.2"/>
	<linearGradient id="SVGID_5_" gradientUnits="userSpaceOnUse" x1="364.2087" y1="19.3731" x2="382.7189" y2="19.3731">
		<stop  offset="9.128630e-002" style="stop-color:#AFB0B9"/>
		<stop  offset="0.2459" style="stop-color:#FFFFFF"/>
		<stop  offset="0.2943" style="stop-color:#FCFCFC"/>
		<stop  offset="0.337" style="stop-color:#F1F1F3"/>
		<stop  offset="0.3775" style="stop-color:#DFDFE3"/>
		<stop  offset="0.4164" style="stop-color:#C5C6CD"/>
		<stop  offset="0.4437" style="stop-color:#AFB0B9"/>
		<stop  offset="0.7029" style="stop-color:#FFFFFF"/>
		<stop  offset="0.7622" style="stop-color:#FCFCFC"/>
		<stop  offset="0.8144" style="stop-color:#F1F1F2"/>
		<stop  offset="0.8641" style="stop-color:#DFDFE2"/>
		<stop  offset="0.9121" style="stop-color:#C5C6CB"/>
		<stop  offset="0.9585" style="stop-color:#A5A6AD"/>
		<stop  offset="1" style="stop-color:#81828D"/>
	</linearGradient>
	<path class="st6" d="M364.2,3.5v31.8l18.5-15.7L364.2,3.5z M364.2,3.5"/>
	<linearGradient id="SVGID_6_" gradientUnits="userSpaceOnUse" x1="399.3048" y1="19.3636" x2="417.8148" y2="19.3636">
		<stop  offset="9.128630e-002" style="stop-color:#AFB0B9"/>
		<stop  offset="0.2459" style="stop-color:#FFFFFF"/>
		<stop  offset="0.2943" style="stop-color:#FCFCFC"/>
		<stop  offset="0.337" style="stop-color:#F1F1F3"/>
		<stop  offset="0.3775" style="stop-color:#DFDFE3"/>
		<stop  offset="0.4164" style="stop-color:#C5C6CD"/>
		<stop  offset="0.4437" style="stop-color:#AFB0B9"/>
		<stop  offset="0.7029" style="stop-color:#FFFFFF"/>
		<stop  offset="0.7622" style="stop-color:#FCFCFC"/>
		<stop  offset="0.8144" style="stop-color:#F1F1F2"/>
		<stop  offset="0.8641" style="stop-color:#DFDFE2"/>
		<stop  offset="0.9121" style="stop-color:#C5C6CB"/>
		<stop  offset="0.9585" style="stop-color:#A5A6AD"/>
		<stop  offset="1" style="stop-color:#81828D"/>
	</linearGradient>
	<path class="st7" d="M399.3,19.5l18.5,15.7V3.5L399.3,19.5z M399.3,19.5"/>
</g>
<g>
	<g>
		<linearGradient id="SVGID_7_" gradientUnits="userSpaceOnUse" x1="0" y1="19.251" x2="33.7984" y2="19.251">
			<stop  offset="9.128630e-002" style="stop-color:#AFB0B9"/>
			<stop  offset="0.2459" style="stop-color:#FFFFFF"/>
			<stop  offset="0.2943" style="stop-color:#FCFCFC"/>
			<stop  offset="0.337" style="stop-color:#F1F1F3"/>
			<stop  offset="0.3775" style="stop-color:#DFDFE3"/>
			<stop  offset="0.4164" style="stop-color:#C5C6CD"/>
			<stop  offset="0.4437" style="stop-color:#AFB0B9"/>
			<stop  offset="0.7029" style="stop-color:#FFFFFF"/>
			<stop  offset="0.7622" style="stop-color:#FCFCFC"/>
			<stop  offset="0.8144" style="stop-color:#F1F1F2"/>
			<stop  offset="0.8641" style="stop-color:#DFDFE2"/>
			<stop  offset="0.9121" style="stop-color:#C5C6CB"/>
			<stop  offset="0.9585" style="stop-color:#A5A6AD"/>
			<stop  offset="1" style="stop-color:#81828D"/>
		</linearGradient>
		<path class="st8" d="M25.2,7.1c-2-1.2-3.8-1.7-5.7-2.9c-1.2-0.8-2.8-2.6-4.1-4.2c-0.2,2.6-1,3.6-1.9,4.4c-1.9,1.5-3.1,1.9-4.7,2.8
			C7.4,7.9,0,12.4,0,22c0,9.6,8.1,16.6,17.1,16.5c9,0,16.7-6.6,16.7-16.4C33.8,12.3,26.4,7.9,25.2,7.1L25.2,7.1z M25.5,34.7
			c-0.2,0.2-1.9,1.4-3.9,1.6c-2,0.2-4.7,0.3-6.4-1.2c-0.3-0.2-0.2-0.6,0-0.8c0.2-0.2,0.3-0.3,0.6-0.3c0.2,0,0.2,0,0.3,0.1
			c0.8,0.6,1.9,1.1,4.2,1.1c2.4,0,4.1-0.7,4.8-1.2c0.3-0.2,0.5,0,0.5,0.1C25.7,34.2,25.8,34.5,25.5,34.7L25.5,34.7z M19,31.6
			c0.4-0.4,1.1-1,1.7-1.2c0.6-0.3,1-0.2,1.6-0.2c0.6,0,1.2,0,1.7,0.3c0.5,0.3,0.7,1,0.9,1.3c0.2,0.4,0,0.6-0.3,0.8
			c-0.3,0.1-0.3,0.1-0.6-0.4c-0.2-0.5-0.5-1-1.8-1c-1.3,0-1.7,0.5-2.3,1c-0.6,0.5-0.9,0.7-1.1,0.4C18.6,32.3,18.6,32,19,31.6
			L19,31.6z M32.5,24.5c0,1.2-0.3,3.2-1.2,4.5c-0.9,1.3-1.4,1.8-2.5,1.7c-1.3-0.1-4-4.2-5.7-4.3c-2.2-0.1-6.8,4.5-10.5,4.5
			c-2.2,0-2.9-0.3-3.7-0.8c-1.1-0.8-1.7-2-1.7-3.6c0-2.9,2.7-5.6,6.2-5.7c4.4,0,7.4,4.3,9.6,4.2c1.9,0,5.4-3.7,7.2-3.7
			C31.9,21.4,32.4,23.3,32.5,24.5L32.5,24.5z M32.5,24.5"/>
	</g>
</g>
<g transform="translate(0 -1)">
	<linearGradient id="SVGID_8_" gradientUnits="userSpaceOnUse" x1="52.3157" y1="5.7729" x2="61.8605" y2="5.7729">
		<stop  offset="9.128630e-002" style="stop-color:#AFB0B9"/>
		<stop  offset="0.2459" style="stop-color:#FFFFFF"/>
		<stop  offset="0.2943" style="stop-color:#FCFCFC"/>
		<stop  offset="0.337" style="stop-color:#F1F1F3"/>
		<stop  offset="0.3775" style="stop-color:#DFDFE3"/>
		<stop  offset="0.4164" style="stop-color:#C5C6CD"/>
		<stop  offset="0.4437" style="stop-color:#AFB0B9"/>
		<stop  offset="0.7029" style="stop-color:#FFFFFF"/>
		<stop  offset="0.7622" style="stop-color:#FCFCFC"/>
		<stop  offset="0.8144" style="stop-color:#F1F1F2"/>
		<stop  offset="0.8641" style="stop-color:#DFDFE2"/>
		<stop  offset="0.9121" style="stop-color:#C5C6CB"/>
		<stop  offset="0.9585" style="stop-color:#A5A6AD"/>
		<stop  offset="1" style="stop-color:#81828D"/>
	</linearGradient>
	<path class="st9" d="M57.1,1.1c2.6,0,4.8,2.2,4.8,4.7c0,2.7-2.3,4.8-4.8,4.7c-2.5,0.1-4.8-2-4.8-4.7C52.2,3.1,54.4,1.1,57.1,1.1"/>
	<linearGradient id="SVGID_9_" gradientUnits="userSpaceOnUse" x1="52.9308" y1="26.312" x2="61.1107" y2="26.312">
		<stop  offset="9.128630e-002" style="stop-color:#AFB0B9"/>
		<stop  offset="0.2459" style="stop-color:#FFFFFF"/>
		<stop  offset="0.2943" style="stop-color:#FCFCFC"/>
		<stop  offset="0.337" style="stop-color:#F1F1F3"/>
		<stop  offset="0.3775" style="stop-color:#DFDFE3"/>
		<stop  offset="0.4164" style="stop-color:#C5C6CD"/>
		<stop  offset="0.4437" style="stop-color:#AFB0B9"/>
		<stop  offset="0.7029" style="stop-color:#FFFFFF"/>
		<stop  offset="0.7622" style="stop-color:#FCFCFC"/>
		<stop  offset="0.8144" style="stop-color:#F1F1F2"/>
		<stop  offset="0.8641" style="stop-color:#DFDFE2"/>
		<stop  offset="0.9121" style="stop-color:#C5C6CB"/>
		<stop  offset="0.9585" style="stop-color:#A5A6AD"/>
		<stop  offset="1" style="stop-color:#81828D"/>
	</linearGradient>
	<path class="st10" d="M59.7,39.4h-5.5c-0.7,0-1.4-0.6-1.4-1.3V14.5c0-0.7,0.5-1.3,1.3-1.3h5.5c0.7,0,1.4,0.6,1.4,1.3v23.6
		C61.1,38.8,60.5,39.4,59.7,39.4"/>
	<linearGradient id="SVGID_10_" gradientUnits="userSpaceOnUse" x1="65.8823" y1="25.9753" x2="91.8535" y2="25.9753">
		<stop  offset="9.128630e-002" style="stop-color:#AFB0B9"/>
		<stop  offset="0.2459" style="stop-color:#FFFFFF"/>
		<stop  offset="0.2943" style="stop-color:#FCFCFC"/>
		<stop  offset="0.337" style="stop-color:#F1F1F3"/>
		<stop  offset="0.3775" style="stop-color:#DFDFE3"/>
		<stop  offset="0.4164" style="stop-color:#C5C6CD"/>
		<stop  offset="0.4437" style="stop-color:#AFB0B9"/>
		<stop  offset="0.7029" style="stop-color:#FFFFFF"/>
		<stop  offset="0.7622" style="stop-color:#FCFCFC"/>
		<stop  offset="0.8144" style="stop-color:#F1F1F2"/>
		<stop  offset="0.8641" style="stop-color:#DFDFE2"/>
		<stop  offset="0.9121" style="stop-color:#C5C6CB"/>
		<stop  offset="0.9585" style="stop-color:#A5A6AD"/>
		<stop  offset="1" style="stop-color:#81828D"/>
	</linearGradient>
	<path class="st11" d="M91.8,21.4c0-5-3.7-8.9-8.8-8.9h-1.4c-2.7,0-5.4,1.3-6.8,3.4c-0.5,0.5-0.7,0.7-0.7,0.7v-2.7
		c0-0.3-0.4-0.7-0.7-0.7h-6.8c-0.3,0-0.7,0.3-0.7,0.6v25.1c0,0.3,0.4,0.5,0.7,0.5h7.5c0.3,0,0.7-0.3,0.7-0.5V24.4
		c0-2.5,1.9-4.6,4.4-4.6c1.3,0,2.5,0.5,3.3,1.3c0.8,0.8,1.2,2,1.2,3.2v14.5c0,0.3,0.4,0.7,0.7,0.7h6.8c0.3,0,0.7-0.4,0.7-0.7
		L91.8,21.4L91.8,21.4z"/>
</g>
<linearGradient id="SVGID_11_" gradientUnits="userSpaceOnUse" x1="225.636" y1="19.2052" x2="263.9881" y2="19.2052">
	<stop  offset="9.128630e-002" style="stop-color:#AFB0B9"/>
	<stop  offset="0.2459" style="stop-color:#FFFFFF"/>
	<stop  offset="0.2943" style="stop-color:#FCFCFC"/>
	<stop  offset="0.337" style="stop-color:#F1F1F3"/>
	<stop  offset="0.3775" style="stop-color:#DFDFE3"/>
	<stop  offset="0.4164" style="stop-color:#C5C6CD"/>
	<stop  offset="0.4437" style="stop-color:#AFB0B9"/>
	<stop  offset="0.7029" style="stop-color:#FFFFFF"/>
	<stop  offset="0.7622" style="stop-color:#FCFCFC"/>
	<stop  offset="0.8144" style="stop-color:#F1F1F2"/>
	<stop  offset="0.8641" style="stop-color:#DFDFE2"/>
	<stop  offset="0.9121" style="stop-color:#C5C6CB"/>
	<stop  offset="0.9585" style="stop-color:#A5A6AD"/>
	<stop  offset="1" style="stop-color:#81828D"/>
</linearGradient>
<path class="st12" d="M246.7,23.1h9.4c-1.6,4.6-6.1,7.9-11.3,7.9c-6.3,0-11.6-5.1-11.8-11.3c-0.3-6.7,5.2-12.3,11.9-12.3
	c3.1,0,5.9,1.2,8,3.1c0.5,0.5,1.3,0.5,1.8,0l3.4-3.2c0.5-0.5,0.5-1.4,0-1.9c-3.4-3.2-7.8-5.1-12.8-5.2c-10.6-0.2-19.5,8.4-19.6,18.9
	c-0.1,10.6,8.5,19.2,19.2,19.2c10.2,0,18.6-7.9,19.1-18c0-0.1,0-4.4,0-4.4h-17.3c-0.7,0-1.3,0.6-1.3,1.3v4.7
	C245.4,22.6,246,23.1,246.7,23.1L246.7,23.1z M246.7,23.1"/>
<linearGradient id="SVGID_12_" gradientUnits="userSpaceOnUse" x1="268.005" y1="19.371" x2="285.5867" y2="19.371">
	<stop  offset="9.128630e-002" style="stop-color:#AFB0B9"/>
	<stop  offset="0.2459" style="stop-color:#FFFFFF"/>
	<stop  offset="0.2943" style="stop-color:#FCFCFC"/>
	<stop  offset="0.337" style="stop-color:#F1F1F3"/>
	<stop  offset="0.3775" style="stop-color:#DFDFE3"/>
	<stop  offset="0.4164" style="stop-color:#C5C6CD"/>
	<stop  offset="0.4437" style="stop-color:#AFB0B9"/>
	<stop  offset="0.7029" style="stop-color:#FFFFFF"/>
	<stop  offset="0.7622" style="stop-color:#FCFCFC"/>
	<stop  offset="0.8144" style="stop-color:#F1F1F2"/>
	<stop  offset="0.8641" style="stop-color:#DFDFE2"/>
	<stop  offset="0.9121" style="stop-color:#C5C6CB"/>
	<stop  offset="0.9585" style="stop-color:#A5A6AD"/>
	<stop  offset="1" style="stop-color:#81828D"/>
</linearGradient>
<path class="st13" d="M279.9,16.3v-4.6c0-0.6-0.5-1.1-1.1-1.1h-3.9c-0.6,0-1.1,0.5-1.1,1.1v4.6h-4.6c-0.6,0-1.1,0.5-1.1,1.1v3.8
	c0,0.6,0.5,1.1,1.1,1.1h4.6V27c0,0.6,0.5,1.1,1.1,1.1h3.9c0.6,0,1.1-0.5,1.1-1.1v-4.6h4.6c0.6,0,1.1-0.5,1.1-1.1v-3.8
	c0-0.6-0.5-1.1-1.1-1.1H279.9z M279.9,16.3"/>
<linearGradient id="SVGID_13_" gradientUnits="userSpaceOnUse" x1="115.6527" y1="19.251" x2="134.8874" y2="19.251">
	<stop  offset="9.128630e-002" style="stop-color:#AFB0B9"/>
	<stop  offset="0.2459" style="stop-color:#FFFFFF"/>
	<stop  offset="0.2943" style="stop-color:#FCFCFC"/>
	<stop  offset="0.337" style="stop-color:#F1F1F3"/>
	<stop  offset="0.3775" style="stop-color:#DFDFE3"/>
	<stop  offset="0.4164" style="stop-color:#C5C6CD"/>
	<stop  offset="0.4437" style="stop-color:#AFB0B9"/>
	<stop  offset="0.7029" style="stop-color:#FFFFFF"/>
	<stop  offset="0.7622" style="stop-color:#FCFCFC"/>
	<stop  offset="0.8144" style="stop-color:#F1F1F2"/>
	<stop  offset="0.8641" style="stop-color:#DFDFE2"/>
	<stop  offset="0.9121" style="stop-color:#C5C6CB"/>
	<stop  offset="0.9585" style="stop-color:#A5A6AD"/>
	<stop  offset="1" style="stop-color:#81828D"/>
</linearGradient>
<path class="st14" d="M116.3,20.5h4.2v17.3c0,0.3,0.3,0.6,0.6,0.6h7.1c0.3,0,0.6-0.3,0.6-0.6V20.6h4.8c0.3,0,0.6-0.2,0.6-0.5
	l0.7-6.4c0-0.2,0-0.4-0.2-0.5c-0.1-0.1-0.3-0.2-0.5-0.2h-5.5V9c0-1.2,0.6-1.8,1.9-1.8c0.2,0,3.6,0,3.6,0c0.3,0,0.6-0.3,0.6-0.6V0.7
	c0-0.3-0.3-0.6-0.6-0.6h-5c0,0-0.1,0-0.2,0c-0.9,0-3.9,0.2-6.2,2.4c-2.6,2.4-2.3,5.4-2.2,5.9V13h-4.4c-0.3,0-0.6,0.3-0.6,0.6v6.3
	C115.7,20.2,115.9,20.5,116.3,20.5z"/>
<g>
	<linearGradient id="SVGID_14_" gradientUnits="userSpaceOnUse" x1="437.1614" y1="31.6518" x2="467.9408" y2="31.6518">
		<stop  offset="9.128630e-002" style="stop-color:#AFB0B9"/>
		<stop  offset="0.2459" style="stop-color:#FFFFFF"/>
		<stop  offset="0.2943" style="stop-color:#FCFCFC"/>
		<stop  offset="0.337" style="stop-color:#F1F1F3"/>
		<stop  offset="0.3775" style="stop-color:#DFDFE3"/>
		<stop  offset="0.4164" style="stop-color:#C5C6CD"/>
		<stop  offset="0.4437" style="stop-color:#AFB0B9"/>
		<stop  offset="0.7029" style="stop-color:#FFFFFF"/>
		<stop  offset="0.7622" style="stop-color:#FCFCFC"/>
		<stop  offset="0.8144" style="stop-color:#F1F1F2"/>
		<stop  offset="0.8641" style="stop-color:#DFDFE2"/>
		<stop  offset="0.9121" style="stop-color:#C5C6CB"/>
		<stop  offset="0.9585" style="stop-color:#A5A6AD"/>
		<stop  offset="1" style="stop-color:#81828D"/>
	</linearGradient>
	<path class="st15" d="M437.2,24.9c0.9,0,1.7,0,2.6,0c0.6,0,0.8,0.2,0.8,0.8c0,2.8,0,5.6,0,8.4c0,1,0,1,1,1c7.4,0,14.8,0,22.2,0
		c1.1,0,1.1,0,1.1-1.1c0-2.8,0-5.6,0-8.4c0-0.5,0.1-0.7,0.7-0.7c0.6,0,1.2,0,1.7,0c0.7,0,0.8,0.2,0.8,0.9c0,3.9,0,7.9,0,11.8
		c0,0.3,0,0.6,0,0.8c-10.2,0-20.5,0-30.8,0C437.2,33.9,437.2,29.4,437.2,24.9z"/>
	<linearGradient id="SVGID_15_" gradientUnits="userSpaceOnUse" x1="456.7509" y1="7.9052" x2="469.6038" y2="7.9052">
		<stop  offset="9.128630e-002" style="stop-color:#AFB0B9"/>
		<stop  offset="0.2459" style="stop-color:#FFFFFF"/>
		<stop  offset="0.2943" style="stop-color:#FCFCFC"/>
		<stop  offset="0.337" style="stop-color:#F1F1F3"/>
		<stop  offset="0.3775" style="stop-color:#DFDFE3"/>
		<stop  offset="0.4164" style="stop-color:#C5C6CD"/>
		<stop  offset="0.4437" style="stop-color:#AFB0B9"/>
		<stop  offset="0.7029" style="stop-color:#FFFFFF"/>
		<stop  offset="0.7622" style="stop-color:#FCFCFC"/>
		<stop  offset="0.8144" style="stop-color:#F1F1F2"/>
		<stop  offset="0.8641" style="stop-color:#DFDFE2"/>
		<stop  offset="0.9121" style="stop-color:#C5C6CB"/>
		<stop  offset="0.9585" style="stop-color:#A5A6AD"/>
		<stop  offset="1" style="stop-color:#81828D"/>
	</linearGradient>
	<path class="st16" d="M459.5,0.1c1.1,1.5,2.2,3.1,3.3,4.6c2.1,2.8,4.1,5.5,6.2,8.3c0.2,0.2,0.4,0.4,0.6,0.6c0,0.1,0,0.2,0,0.3
		c-0.7,0.5-1.4,1-2.1,1.6c-0.5,0.4-0.8,0.4-1.1-0.2c-2.2-2.9-4.3-5.8-6.5-8.8c-0.9-1.2-1.8-2.4-2.7-3.6c-0.6-0.7-0.6-0.7,0.2-1.3
		c0.6-0.5,1.3-1,1.9-1.5C459.3,0.1,459.4,0.1,459.5,0.1z"/>
	<linearGradient id="SVGID_16_" gradientUnits="userSpaceOnUse" x1="444.4103" y1="23.8941" x2="461.7833" y2="23.8941">
		<stop  offset="9.128630e-002" style="stop-color:#AFB0B9"/>
		<stop  offset="0.2459" style="stop-color:#FFFFFF"/>
		<stop  offset="0.2943" style="stop-color:#FCFCFC"/>
		<stop  offset="0.337" style="stop-color:#F1F1F3"/>
		<stop  offset="0.3775" style="stop-color:#DFDFE3"/>
		<stop  offset="0.4164" style="stop-color:#C5C6CD"/>
		<stop  offset="0.4437" style="stop-color:#AFB0B9"/>
		<stop  offset="0.7029" style="stop-color:#FFFFFF"/>
		<stop  offset="0.7622" style="stop-color:#FCFCFC"/>
		<stop  offset="0.8144" style="stop-color:#F1F1F2"/>
		<stop  offset="0.8641" style="stop-color:#DFDFE2"/>
		<stop  offset="0.9121" style="stop-color:#C5C6CB"/>
		<stop  offset="0.9585" style="stop-color:#A5A6AD"/>
		<stop  offset="1" style="stop-color:#81828D"/>
	</linearGradient>
	<path class="st17" d="M460.9,27.3c-1.6-0.3-3-0.6-4.4-0.9c-3.7-0.8-7.4-1.6-11.1-2.3c-0.2,0-0.4-0.1-0.6-0.1
		c-0.4-0.1-0.5-0.3-0.4-0.6c0.2-0.7,0.3-1.4,0.5-2.2c0.1-0.6,0.3-0.7,0.9-0.5c3.7,0.8,7.5,1.6,11.2,2.4c1.4,0.3,2.8,0.6,4.3,0.9
		c0.4,0.1,0.6,0.3,0.5,0.7c-0.2,0.8-0.3,1.5-0.5,2.3C461.2,27,461,27.2,460.9,27.3z"/>
	<linearGradient id="SVGID_17_" gradientUnits="userSpaceOnUse" x1="450.8637" y1="12.3864" x2="466.2963" y2="12.3864">
		<stop  offset="9.128630e-002" style="stop-color:#AFB0B9"/>
		<stop  offset="0.2459" style="stop-color:#FFFFFF"/>
		<stop  offset="0.2943" style="stop-color:#FCFCFC"/>
		<stop  offset="0.337" style="stop-color:#F1F1F3"/>
		<stop  offset="0.3775" style="stop-color:#DFDFE3"/>
		<stop  offset="0.4164" style="stop-color:#C5C6CD"/>
		<stop  offset="0.4437" style="stop-color:#AFB0B9"/>
		<stop  offset="0.7029" style="stop-color:#FFFFFF"/>
		<stop  offset="0.7622" style="stop-color:#FCFCFC"/>
		<stop  offset="0.8144" style="stop-color:#F1F1F2"/>
		<stop  offset="0.8641" style="stop-color:#DFDFE2"/>
		<stop  offset="0.9121" style="stop-color:#C5C6CB"/>
		<stop  offset="0.9585" style="stop-color:#A5A6AD"/>
		<stop  offset="1" style="stop-color:#81828D"/>
	</linearGradient>
	<path class="st18" d="M466.3,16.5c-0.7,0.8-1.3,1.5-1.8,2.2c-0.3,0.4-0.6,0.5-1,0.1c-2.3-1.9-4.5-3.8-6.8-5.7
		c-1.8-1.5-3.5-2.9-5.3-4.4c-0.2-0.1-0.3-0.3-0.6-0.5c0.7-0.8,1.3-1.6,2-2.3c0.1-0.1,0.6,0,0.7,0.1c1.6,1.3,3.2,2.6,4.8,3.9
		c2.5,2,4.9,4.1,7.4,6.1C465.9,16.2,466.1,16.3,466.3,16.5z"/>
	<linearGradient id="SVGID_18_" gradientUnits="userSpaceOnUse" x1="446.6983" y1="17.8462" x2="463.5168" y2="17.8462">
		<stop  offset="9.128630e-002" style="stop-color:#AFB0B9"/>
		<stop  offset="0.2459" style="stop-color:#FFFFFF"/>
		<stop  offset="0.2943" style="stop-color:#FCFCFC"/>
		<stop  offset="0.337" style="stop-color:#F1F1F3"/>
		<stop  offset="0.3775" style="stop-color:#DFDFE3"/>
		<stop  offset="0.4164" style="stop-color:#C5C6CD"/>
		<stop  offset="0.4437" style="stop-color:#AFB0B9"/>
		<stop  offset="0.7029" style="stop-color:#FFFFFF"/>
		<stop  offset="0.7622" style="stop-color:#FCFCFC"/>
		<stop  offset="0.8144" style="stop-color:#F1F1F2"/>
		<stop  offset="0.8641" style="stop-color:#DFDFE2"/>
		<stop  offset="0.9121" style="stop-color:#C5C6CB"/>
		<stop  offset="0.9585" style="stop-color:#A5A6AD"/>
		<stop  offset="1" style="stop-color:#81828D"/>
	</linearGradient>
	<path class="st19" d="M463.5,20c-0.1,0.2-0.1,0.3-0.2,0.5c-0.3,0.6-0.6,1.3-0.9,1.9c-0.2,0.4-0.4,0.6-0.9,0.4
		c-4.8-2.2-9.6-4.5-14.4-6.7c-0.5-0.2-0.6-0.4-0.3-0.9c0.3-0.6,0.6-1.2,0.9-1.9c0.2-0.6,0.5-0.6,1-0.3c2.7,1.3,5.4,2.5,8.2,3.8
		c2,0.9,4.1,1.9,6.1,2.8C463.1,19.7,463.3,19.9,463.5,20z"/>
	<linearGradient id="SVGID_19_" gradientUnits="userSpaceOnUse" x1="443.9088" y1="29.918" x2="461.2833" y2="29.918">
		<stop  offset="9.128630e-002" style="stop-color:#AFB0B9"/>
		<stop  offset="0.2459" style="stop-color:#FFFFFF"/>
		<stop  offset="0.2943" style="stop-color:#FCFCFC"/>
		<stop  offset="0.337" style="stop-color:#F1F1F3"/>
		<stop  offset="0.3775" style="stop-color:#DFDFE3"/>
		<stop  offset="0.4164" style="stop-color:#C5C6CD"/>
		<stop  offset="0.4437" style="stop-color:#AFB0B9"/>
		<stop  offset="0.7029" style="stop-color:#FFFFFF"/>
		<stop  offset="0.7622" style="stop-color:#FCFCFC"/>
		<stop  offset="0.8144" style="stop-color:#F1F1F2"/>
		<stop  offset="0.8641" style="stop-color:#DFDFE2"/>
		<stop  offset="0.9121" style="stop-color:#C5C6CB"/>
		<stop  offset="0.9585" style="stop-color:#A5A6AD"/>
		<stop  offset="1" style="stop-color:#81828D"/>
	</linearGradient>
	<path class="st20" d="M452.6,31.6c-2.6,0-5.2,0-7.8,0c-0.6,0-0.9-0.2-0.8-0.8c0-0.6,0-1.2,0-1.8c0-0.6,0.2-0.8,0.8-0.8
		c2.8,0,5.6,0,8.5,0c2.4,0,4.9,0,7.3,0c0.6,0,0.9,0.2,0.8,0.8c0,0.6,0,1.2,0,1.9c0,0.6-0.2,0.7-0.7,0.7
		C457.9,31.6,455.2,31.6,452.6,31.6z"/>
</g>
<path class="st21" d="M206.5,55.6c-1,0.5-2.1,0.8-3.1,1.1c1.2-1.1,2.1-2.5,2.6-4.1c0.1-0.5-0.3-0.8-0.8-0.6c-1.5,0.9-3.1,1.6-4.8,2
	c-0.1,0-0.2,0-0.3,0c-0.3,0-0.6-0.1-0.8-0.3c-1.8-1.6-4.1-2.5-6.5-2.5c-1,0-2.1,0.2-3.1,0.5c-3.2,1-5.7,3.6-6.4,6.9
	c-0.3,1.2-0.4,2.4-0.2,3.6c0,0.1,0,0.2-0.1,0.3c-0.1,0.1-0.2,0.1-0.3,0.1c0,0,0,0,0,0c-7-0.6-13.3-4-17.7-9.5
	c-0.2-0.3-0.7-0.2-0.8,0.1c-0.9,1.5-1.3,3.2-1.3,5c0,2.7,1.1,5.2,2.9,7c-0.8-0.2-1.5-0.5-2.2-0.9c-0.3-0.2-0.8,0.1-0.8,0.4
	c0,4,2.3,7.5,5.8,9.1c-0.1,0-0.1,0-0.2,0c-0.6,0-1.1-0.1-1.7-0.2c-0.4-0.1-0.7,0.3-0.6,0.7c1.1,3.5,4.2,6.1,7.8,6.7
	c-3,2-6.5,3.1-10.2,3.1l-1.1,0c-0.4,0-0.6,0.2-0.7,0.6c-0.1,0.3,0.1,0.7,0.4,0.9c4.1,2.4,8.8,3.7,13.6,3.7c4.2,0,8.1-0.8,11.6-2.5
	c3.2-1.5,6.1-3.6,8.5-6.4c2.2-2.5,4-5.5,5.2-8.7c1.2-3.1,1.8-6.4,1.8-9.5V62c0-0.5,0.2-1,0.6-1.3c1.5-1.2,2.8-2.7,3.9-4.3
	C207.4,55.9,207,55.4,206.5,55.6L206.5,55.6z M206.5,55.6"/>
<rect x="161.6" y="51.2" class="st2" width="45.8" height="38.1"/>
<g>
	<g>
		<defs>
			<rect id="SVGID_20_" x="301" y="51.1" width="43.6" height="38.4"/>
		</defs>
		<clipPath id="SVGID_21_">
			<use xlink:href="#SVGID_20_"  style="overflow:visible;"/>
		</clipPath>
		<path class="st22" d="M342.8,73.5c-0.7-1-1-2.1-1-3.3c0,0,0,0,0,0c0-10.6-8.5-19.1-19-19.1c-2.3,0-4.5,0.4-6.5,1.2
			c-1.1,0.4-2.3,0.5-3.4,0.2c-1-0.3-2.1-0.4-3.2-0.3c-4.6,0.3-8.4,4.2-8.6,8.8c-0.1,2.2,0.6,4.3,1.7,6c0.7,1,1,2.1,1,3.3v0
			c0,10.6,8.5,19.1,19,19.1c2.3,0,4.5-0.4,6.5-1.2c1.1-0.4,2.3-0.5,3.4-0.2c1,0.3,2.1,0.4,3.2,0.3c4.6-0.3,8.4-4.1,8.6-8.8
			C344.7,77.2,344,75.2,342.8,73.5L342.8,73.5z M323.5,66.7c3.8,0.9,9.6,2.3,9.6,8.7c0,3.2-1.5,5.6-4.4,6.8c-2,0.9-4.3,1-6.2,1
			c-6,0-9.8-4.7-10-4.9c-1-1.2-0.8-3.1,0.5-4c1.2-1,3-0.8,4,0.5c0,0,2.3,2.6,5.5,2.7c3.9,0.1,4.8-1,4.9-2c0.1-1.2-0.9-2.1-5.2-3.1
			c-3.6-0.9-9.2-2.2-9.2-8.1c0-1.8,0.7-7.9,10.3-7.9c6,0,9.6,4.8,9.8,5c0.9,1.3,0.7,3.1-0.6,4c-1.3,0.9-3,0.7-4-0.6
			c-0.1-0.1-2.1-2.4-5.2-2.7c-2.3-0.2-4.6,0.6-4.6,1.9C318.8,65.3,319.4,65.8,323.5,66.7L323.5,66.7z M323.5,66.7"/>
	</g>
</g>
<g>
	<g>
		<path class="st23" d="M391,77.9l-6.6-5.8l-19,16.2c0.7,0.7,1.6,1,2.6,1H414c1,0,1.9-0.4,2.6-1l-19-16.2L391,77.9z M391,77.9"/>
		<path class="st23" d="M416.6,52.2c-0.7-0.7-1.6-1-2.6-1h-45.9c-1,0-1.9,0.4-2.6,1L391,74.1L416.6,52.2z M416.6,52.2"/>
		<path class="st23" d="M364.2,54.5v31.8l18.5-15.7L364.2,54.5z M364.2,54.5"/>
		<path class="st23" d="M399.3,70.5l18.5,15.7V54.5L399.3,70.5z M399.3,70.5"/>
	</g>
</g>
<g transform="translate(0 -1)">
	<g>
		<path class="st24" d="M57.1,52.1c2.6,0,4.8,2.2,4.8,4.7c0,2.7-2.3,4.8-4.8,4.7c-2.5,0.1-4.8-2-4.8-4.7
			C52.2,54.1,54.4,52.1,57.1,52.1"/>
		<path class="st24" d="M59.7,90.4h-5.5c-0.7,0-1.4-0.6-1.4-1.3V65.5c0-0.7,0.5-1.3,1.3-1.3h5.5c0.7,0,1.4,0.6,1.4,1.3v23.6
			C61.1,89.8,60.5,90.4,59.7,90.4"/>
		<path class="st24" d="M91.8,72.4c0-5-3.7-8.9-8.8-8.9h-1.4c-2.7,0-5.4,1.3-6.8,3.4c-0.5,0.5-0.7,0.7-0.7,0.7v-2.7
			c0-0.3-0.4-0.7-0.7-0.7h-6.8c-0.3,0-0.7,0.3-0.7,0.6v25.1c0,0.3,0.4,0.5,0.7,0.5h7.5c0.3,0,0.7-0.3,0.7-0.5V75.4
			c0-2.5,1.9-4.6,4.4-4.6c1.3,0,2.5,0.5,3.3,1.3c0.8,0.8,1.2,2,1.2,3.2v14.5c0,0.3,0.4,0.7,0.7,0.7h6.8c0.3,0,0.7-0.4,0.7-0.7
			L91.8,72.4L91.8,72.4z"/>
	</g>
</g>
<g>
	<g>
		<defs>
			<rect id="SVGID_22_" x="225.6" y="51.1" width="60" height="38.3"/>
		</defs>
		<clipPath id="SVGID_23_">
			<use xlink:href="#SVGID_22_"  style="overflow:visible;"/>
		</clipPath>
		<path class="st25" d="M246.7,74.1h9.4c-1.6,4.6-6.1,7.9-11.3,7.9c-6.3,0-11.6-5.1-11.8-11.3c-0.3-6.7,5.2-12.3,11.9-12.3
			c3.1,0,5.9,1.2,8,3.1c0.5,0.5,1.3,0.5,1.8,0l3.4-3.2c0.5-0.5,0.5-1.4,0-1.9c-3.4-3.2-7.8-5.1-12.8-5.2
			c-10.6-0.2-19.5,8.4-19.6,18.9c-0.1,10.6,8.5,19.2,19.2,19.2c10.2,0,18.6-7.9,19.1-18c0-0.1,0-4.4,0-4.4h-17.3
			c-0.7,0-1.3,0.6-1.3,1.3v4.7C245.4,73.6,246,74.1,246.7,74.1L246.7,74.1z M246.7,74.1"/>
	</g>
	<path class="st26" d="M279.9,67.3v-4.6c0-0.6-0.5-1.1-1.1-1.1h-3.9c-0.6,0-1.1,0.5-1.1,1.1v4.6h-4.6c-0.6,0-1.1,0.5-1.1,1.1v3.8
		c0,0.6,0.5,1.1,1.1,1.1h4.6V78c0,0.6,0.5,1.1,1.1,1.1h3.9c0.6,0,1.1-0.5,1.1-1.1v-4.6h4.6c0.6,0,1.1-0.5,1.1-1.1v-3.8
		c0-0.6-0.5-1.1-1.1-1.1H279.9z M279.9,67.3"/>
</g>
<path class="st27" d="M116.3,71.5h4.2v17.3c0,0.3,0.3,0.6,0.6,0.6h7.1c0.3,0,0.6-0.3,0.6-0.6V71.6h4.8c0.3,0,0.6-0.2,0.6-0.5
	l0.7-6.4c0-0.2,0-0.4-0.2-0.5c-0.1-0.1-0.3-0.2-0.5-0.2h-5.5v-4c0-1.2,0.6-1.8,1.9-1.8c0.2,0,3.6,0,3.6,0c0.3,0,0.6-0.3,0.6-0.6
	v-5.8c0-0.3-0.3-0.6-0.6-0.6h-5c0,0-0.1,0-0.2,0c-0.9,0-3.9,0.2-6.2,2.4c-2.6,2.4-2.3,5.4-2.2,5.9V64h-4.4c-0.3,0-0.6,0.3-0.6,0.6
	v6.3C115.7,71.2,115.9,71.5,116.3,71.5z"/>
<g>
	<path class="st28" d="M437.2,75.9c0.9,0,1.7,0,2.6,0c0.6,0,0.8,0.2,0.8,0.8c0,2.8,0,5.6,0,8.4c0,1,0,1,1,1c7.4,0,14.8,0,22.2,0
		c1.1,0,1.1,0,1.1-1.1c0-2.8,0-5.6,0-8.4c0-0.5,0.1-0.7,0.7-0.7c0.6,0,1.2,0,1.7,0c0.7,0,0.8,0.2,0.8,0.9c0,3.9,0,7.9,0,11.8
		c0,0.3,0,0.6,0,0.8c-10.2,0-20.5,0-30.8,0C437.2,84.9,437.2,80.4,437.2,75.9z"/>
	<path class="st29" d="M459.5,51.1c1.1,1.5,2.2,3.1,3.3,4.6c2.1,2.8,4.1,5.5,6.2,8.3c0.2,0.2,0.4,0.4,0.6,0.6c0,0.1,0,0.2,0,0.3
		c-0.7,0.5-1.4,1-2.1,1.6c-0.5,0.4-0.8,0.4-1.1-0.2c-2.2-2.9-4.3-5.8-6.5-8.8c-0.9-1.2-1.8-2.4-2.7-3.6c-0.6-0.7-0.6-0.7,0.2-1.3
		c0.6-0.5,1.3-1,1.9-1.5C459.3,51.1,459.4,51.1,459.5,51.1z"/>
	<path class="st29" d="M460.9,78.3c-1.6-0.3-3-0.6-4.4-0.9c-3.7-0.8-7.4-1.6-11.1-2.3c-0.2,0-0.4-0.1-0.6-0.1
		c-0.4-0.1-0.5-0.3-0.4-0.6c0.2-0.7,0.3-1.4,0.5-2.2c0.1-0.6,0.3-0.7,0.9-0.5c3.7,0.8,7.5,1.6,11.2,2.4c1.4,0.3,2.8,0.6,4.3,0.9
		c0.4,0.1,0.6,0.3,0.5,0.7c-0.2,0.8-0.3,1.5-0.5,2.3C461.2,78,461,78.2,460.9,78.3z"/>
	<path class="st29" d="M466.3,67.5c-0.7,0.8-1.3,1.5-1.8,2.2c-0.3,0.4-0.6,0.5-1,0.1c-2.3-1.9-4.5-3.8-6.8-5.7
		c-1.8-1.5-3.5-2.9-5.3-4.4c-0.2-0.1-0.3-0.3-0.6-0.5c0.7-0.8,1.3-1.6,2-2.3c0.1-0.1,0.6,0,0.7,0.1c1.6,1.3,3.2,2.6,4.8,3.9
		c2.5,2,4.9,4.1,7.4,6.1C465.9,67.2,466.1,67.3,466.3,67.5z"/>
	<path class="st29" d="M463.5,71c-0.1,0.2-0.1,0.3-0.2,0.5c-0.3,0.6-0.6,1.3-0.9,1.9c-0.2,0.4-0.4,0.6-0.9,0.4
		c-4.8-2.2-9.6-4.5-14.4-6.7c-0.5-0.2-0.6-0.4-0.3-0.9c0.3-0.6,0.6-1.2,0.9-1.9c0.2-0.6,0.5-0.6,1-0.3c2.7,1.3,5.4,2.5,8.2,3.8
		c2,0.9,4.1,1.9,6.1,2.8C463.1,70.7,463.3,70.9,463.5,71z"/>
	<path class="st29" d="M452.6,82.6c-2.6,0-5.2,0-7.8,0c-0.6,0-0.9-0.2-0.8-0.8c0-0.6,0-1.2,0-1.8c0-0.6,0.2-0.8,0.8-0.8
		c2.8,0,5.6,0,8.5,0c2.4,0,4.9,0,7.3,0c0.6,0,0.9,0.2,0.8,0.8c0,0.6,0,1.2,0,1.9c0,0.6-0.2,0.7-0.7,0.7
		C457.9,82.6,455.2,82.6,452.6,82.6z"/>
</g>
</svg>
